<mxfile host="app.diagrams.net" modified="2024-01-14T15:03:19.187Z" agent="Mozilla/5.0 (Windows NT 10.0; Win64; x64) AppleWebKit/537.36 (KHTML, like Gecko) Chrome/120.0.0.0 Safari/537.36" etag="wxm-29zoGRNnkQiL0_TP" version="22.1.18" type="github">
  <diagram id="C5RBs43oDa-KdzZeNtuy" name="Page-1">
    <mxGraphModel dx="2901" dy="1147" grid="1" gridSize="10" guides="1" tooltips="1" connect="1" arrows="1" fold="1" page="1" pageScale="1" pageWidth="827" pageHeight="1169" math="0" shadow="0">
      <root>
        <mxCell id="WIyWlLk6GJQsqaUBKTNV-0" />
        <mxCell id="WIyWlLk6GJQsqaUBKTNV-1" parent="WIyWlLk6GJQsqaUBKTNV-0" />
        <mxCell id="J0IwMMobx1PNj9GfN-dM-5" value="" style="rounded=0;whiteSpace=wrap;html=1;" vertex="1" parent="WIyWlLk6GJQsqaUBKTNV-1">
          <mxGeometry x="-570" width="2340" height="1890" as="geometry" />
        </mxCell>
        <UserObject label="" plantUmlData="{&#xa;  &quot;data&quot;: &quot;@startuml\n\nclass IPhysicScreen {\n    + instance(int videooutput) : IPhysicScreen*  // 获取实例\n    + getAddr() : std::string  // 获取当前屏幕的地址\n    + initControlParms(const Json::Value &amp;attribute) : void  // 更新屏幕控制信息\n    + initPowerSchedule(const Json::Value schedule) : void  // 设置开关机计划\n    + getPowerSchedule() : int  // 检查并执行开关机计划\n    + powerCtrl(bool on_off) : bool  // 屏幕开关\n    + autoAdjust() : bool  // 屏幕自动校正\n    + setBackLight(int mode) : bool  // 设置屏幕背光模式接口\n    + setAttribute(const std::string&amp; type, const std::string&amp; attrName, int currentValue, int option) : bool  // 设置屏幕属性接口\n    + getAttributeCaps() : Json::Value  // 获取屏幕调节能力集\n    + switchInputSource(std::string deviceID) : bool  // 切换屏幕的输入信号\n    + mapAnalogOut(std::string deviceID) : int  // 获取到这个屏幕对应的模拟矩阵的输出\n    + blackScreenControl(bool bEnable) : bool  // 黑屏控制\n    + dump() : void  // 设置测试画面\n    + setScreenControl(const int screenCtrlType) : bool  // 设置测试画面\n    + getSensorInfo(const std::string&amp; attrName, int &amp;attrValue) : bool  // 获取传感器信息\n}\n\nclass CPhysicScreen {\n    + CPhysicScreen(int videooutput)  // 构造函数\n    + ~CPhysicScreen()  // 析构函数\n    + getAddr() : std::string  // 获取当前屏幕的地址\n    + initControlParms(const Json::Value &amp;attribute) : void  // 更新屏幕控制信息\n    + initPowerSchedule(const Json::Value schedule) : void  // 设置开关机计划\n    + getPowerSchedule() : int  // 检查并执行开关机计划\n    + powerCtrl(bool on_off) : bool  // 屏幕开关\n    + autoAdjust() : bool  // 屏幕自动校正\n    + setBackLight(int mode) : bool  // 设置屏幕背光模式接口\n    + setAttribute(const std::string&amp; type, const std::string&amp; attrName, int currentValue, int option) : bool  // 设置屏幕属性接口\n    + getAttributeCaps() : Json::Value  // 获取屏幕调节能力集\n    + switchInputSource(std::string deviceID) : bool  // 切换屏幕的输入信号\n    + mapAnalogOut(std::string deviceID) : int  // 获取到这个屏幕对应的模拟矩阵的输出\n    + dump() : void  // 设置测试画面\n    + blackScreenControl(bool bEnable) : bool  // 黑屏控制\n    + sendCmds() : bool  // 发送命令\n    + sendCmd() : bool  // 发送命令\n    + setScreenControl(const int screenCtrlType) : bool  // 设置测试画面\n    + getSensorInfo(const std::string&amp; attrName, int &amp;attrValue) : bool  // 获取传感器信息\n    - m_ProtocolHandler : ScreenProtocolHandler*  // 协议处理器\n    - m_channel : int  // 通道\n    - m_currentPort : int  // 当前端口\n    - m_devcieMap : Connect_Map  // 设备映射\n    - m_portindex : int  // 端口索引\n    - m_addr : std::string  // 地址\n    - m_protocol : std::string  // 协议\n    - m_attr : COMM_ATTR  // 属性\n    - m_blockSchedule : MapBlockSchedule  // 块计划\n    - m_power : CTimer  // 定时器\n    - m_cmds : std    // 定时器\n    - m_cmds : std::vector&lt;std::string&gt;  // 命令集\n    - m_cmd : std::string  // 命令\n    - m_commWriteMutex : CMutex  // 通信写互斥量\n}\n\nclass CPhysicScreenDef {\n    + instance(int videooutput) : CPhysicScreenDef*  // 获取实例\n    + CPhysicScreenDef(int videooutput)  // 构造函数\n    + ~CPhysicScreenDef()  // 析构函数\n    + getAddr() : std::string  // 获取当前屏幕的地址\n    + initControlParms(const Json::Value &amp;attribute) : void  // 更新屏幕控制信息\n    + initPowerSchedule(const Json::Value schedule) : void  // 设置开关机计划\n    + getPowerSchedule() : int  // 检查并执行开关机计划\n    + powerCtrl(bool on_off) : bool  // 屏幕开关\n    + autoAdjust() : bool  // 屏幕自动校正\n    + setBackLight(int mode) : bool  // 设置屏幕背光模式接口\n    + setAttribute(const std::string&amp; type, const std::string&amp; attrName, int currentValue, int option) : bool  // 设置屏幕属性接口\n    + getAttributeCaps() : Json::Value  // 获取屏幕调节能力集\n    + switchInputSource(std::string deviceID) : bool  // 切换屏幕的输入信号\n    + mapAnalogOut(std::string deviceID) : int  // 获取到这个屏幕对应的模拟矩阵的输出\n    + dump() : void  // 设置测试画面\n    + blackScreenControl(bool bEnable) : bool  // 黑屏控制\n    + setScreenControl(const int screenCtrlType) : bool  // 设置测试画面\n    + getSensorInfo(const std::string&amp; attrName, int &amp;attrValue) : bool  // 获取传感器信息\n}\n\nIPhysicScreen &lt;|-- CPhysicScreen\nIPhysicScreen &lt;|-- CPhysicScreenDef\n\n@enduml&quot;,&#xa;  &quot;format&quot;: &quot;svg&quot;&#xa;}" id="J0IwMMobx1PNj9GfN-dM-2">
          <mxCell style="shape=image;noLabel=1;verticalAlign=top;aspect=fixed;imageAspect=0;image=data:image/svg+xml,PD94bWwgdmVyc2lvbj0iMS4wIiBlbmNvZGluZz0idXMtYXNjaWkiIHN0YW5kYWxvbmU9Im5vIj8+PHN2ZyB4bWxucz0iaHR0cDovL3d3dy53My5vcmcvMjAwMC9zdmciIHhtbG5zOnhsaW5rPSJodHRwOi8vd3d3LnczLm9yZy8xOTk5L3hsaW5rIiBjb250ZW50U3R5bGVUeXBlPSJ0ZXh0L2NzcyIgaGVpZ2h0PSI5MDRweCIgcHJlc2VydmVBc3BlY3RSYXRpbz0ibm9uZSIgc3R5bGU9IndpZHRoOjE4NDNweDtoZWlnaHQ6OTA0cHg7YmFja2dyb3VuZDojRkZGRkZGOyIgdmVyc2lvbj0iMS4xIiB2aWV3Qm94PSIwIDAgMTg0MyA5MDQiIHdpZHRoPSIxODQzcHgiIHpvb21BbmRQYW49Im1hZ25pZnkiPjxkZWZzLz48Zz48IS0tY2xhc3MgSVBoeXNpY1NjcmVlbi0tPjxnIGlkPSJlbGVtX0lQaHlzaWNTY3JlZW4iPjxyZWN0IGNvZGVMaW5lPSIxIiBmaWxsPSIjRjFGMUYxIiBoZWlnaHQ9IjI4Ny43NSIgaWQ9IklQaHlzaWNTY3JlZW4iIHJ4PSIyLjUiIHJ5PSIyLjUiIHN0eWxlPSJzdHJva2U6IzE4MTgxODtzdHJva2Utd2lkdGg6MC41OyIgd2lkdGg9Ijg5NyIgeD0iNDczIiB5PSI3Ii8+PGVsbGlwc2UgY3g9Ijg3MS43NSIgY3k9IjIzIiBmaWxsPSIjQUREMUIyIiByeD0iMTEiIHJ5PSIxMSIgc3R5bGU9InN0cm9rZTojMTgxODE4O3N0cm9rZS13aWR0aDoxLjA7Ii8+PHBhdGggZD0iTTg2OS4zNzUsMjcuMjUgTDg2OS4zNzUsMjkgTDg3NC4zMTI1LDI5IEw4NzQuMzEyNSwyNy4yNSBMODY5LjM3NSwyNy4yNSBaIE04NzAuMDYyNSwyNy45Mzc1IFE4NzAuMDYyNSwyNy45Mzc1IDg3MC4wNjI1LDE4Ljc1IEw4NjguMzEyNSwxOC43NSBRODY4LjMxMjUsMTguNzUgODY4LjMxMjUsMjcuOTM3NSBMODcwLjA2MjUsMjcuOTM3NSBaIE04NzMuNjI1LDI3LjkzNzUgTDg3NS4zNzUsMjcuOTM3NSBRODc1LjM3NSwyNy45Mzc1IDg3NS4zNzUsMjUuMTI1IEw4NzMuNjI1LDI1LjEyNSBRODczLjYyNSwyNS4xMjUgODczLjYyNSwyNy45Mzc1IFogTTg3My42MjUsMTguNzUgUTg3My42MjUsMTguNzUgODczLjYyNSwyMS41NjI1IEw4NzUuMzc1LDIxLjU2MjUgUTg3NS4zNzUsMjEuNTYyNSA4NzUuMzc1LDE4Ljc1IEw4NzMuNjI1LDE4Ljc1IFogTTg2OS4zNzUsMTkuNDM3NSBMODc0LjMxMjUsMTkuNDM3NSBMODc0LjMxMjUsMTcuNjg3NSBMODY5LjM3NSwxNy42ODc1IEw4NjkuMzc1LDE5LjQzNzUgWiAiIGZpbGw9IiMwMDAwMDAiLz48dGV4dCBmaWxsPSIjMDAwMDAwIiBmb250LWZhbWlseT0ic2Fucy1zZXJpZiIgZm9udC1zaXplPSIxNCIgbGVuZ3RoQWRqdXN0PSJzcGFjaW5nIiB0ZXh0TGVuZ3RoPSI5MSIgeD0iODkyLjI1IiB5PSIyOC43NDIyIj5JUGh5c2ljU2NyZWVuPC90ZXh0PjxsaW5lIHN0eWxlPSJzdHJva2U6IzE4MTgxODtzdHJva2Utd2lkdGg6MC41OyIgeDE9IjQ3NCIgeDI9IjEzNjkiIHkxPSIzOSIgeTI9IjM5Ii8+PGxpbmUgc3R5bGU9InN0cm9rZTojMTgxODE4O3N0cm9rZS13aWR0aDowLjU7IiB4MT0iNDc0IiB4Mj0iMTM2OSIgeTE9IjQ3IiB5Mj0iNDciLz48ZWxsaXBzZSBjeD0iNDg0IiBjeT0iNTkuOTkyMiIgZmlsbD0iIzg0QkU4NCIgcng9IjMiIHJ5PSIzIiBzdHlsZT0ic3Ryb2tlOiMwMzgwNDg7c3Ryb2tlLXdpZHRoOjEuMDsiLz48dGV4dCBmaWxsPSIjMDAwMDAwIiBmb250LWZhbWlseT0ic2Fucy1zZXJpZiIgZm9udC1zaXplPSIxNCIgbGVuZ3RoQWRqdXN0PSJzcGFjaW5nIiB0ZXh0TGVuZ3RoPSIzODciIHg9IjQ5MyIgeT0iNjQuMjM0NCI+aW5zdGFuY2UoaW50IHZpZGVvb3V0cHV0KSA6IElQaHlzaWNTY3JlZW4qICAvLyAmIzMzNzE5OyYjMjE0NjI7JiMyMzQ1NDsmIzIwMzYzOzwvdGV4dD48ZWxsaXBzZSBjeD0iNDg0IiBjeT0iNzQuOTc2NiIgZmlsbD0iIzg0QkU4NCIgcng9IjMiIHJ5PSIzIiBzdHlsZT0ic3Ryb2tlOiMwMzgwNDg7c3Ryb2tlLXdpZHRoOjEuMDsiLz48dGV4dCBmaWxsPSIjMDAwMDAwIiBmb250LWZhbWlseT0ic2Fucy1zZXJpZiIgZm9udC1zaXplPSIxNCIgbGVuZ3RoQWRqdXN0PSJzcGFjaW5nIiB0ZXh0TGVuZ3RoPSIzMjQiIHg9IjQ5MyIgeT0iNzkuMjE4OCI+Z2V0QWRkcigpIDogc3RkOjpzdHJpbmcgIC8vICYjMzM3MTk7JiMyMTQ2MjsmIzI0NDAzOyYjMjEwNjk7JiMyMzYzMTsmIzI0MTQ5OyYjMzAzNDA7JiMyMjMyMDsmIzIyMzM2OzwvdGV4dD48ZWxsaXBzZSBjeD0iNDg0IiBjeT0iODkuOTYwOSIgZmlsbD0iIzg0QkU4NCIgcng9IjMiIHJ5PSIzIiBzdHlsZT0ic3Ryb2tlOiMwMzgwNDg7c3Ryb2tlLXdpZHRoOjEuMDsiLz48dGV4dCBmaWxsPSIjMDAwMDAwIiBmb250LWZhbWlseT0ic2Fucy1zZXJpZiIgZm9udC1zaXplPSIxNCIgbGVuZ3RoQWRqdXN0PSJzcGFjaW5nIiB0ZXh0TGVuZ3RoPSI1MjIiIHg9IjQ5MyIgeT0iOTQuMjAzMSI+aW5pdENvbnRyb2xQYXJtcyhjb25zdCBKc29uOjpWYWx1ZSAmYW1wO2F0dHJpYnV0ZSkgOiB2b2lkICAvLyAmIzI2MzU2OyYjMjYwMzI7JiMyMzYzMTsmIzI0MTQ5OyYjMjU1MTE7JiMyMTA0NjsmIzIwNDQ5OyYjMjQ2ODc7PC90ZXh0PjxlbGxpcHNlIGN4PSI0ODQiIGN5PSIxMDQuOTQ1MyIgZmlsbD0iIzg0QkU4NCIgcng9IjMiIHJ5PSIzIiBzdHlsZT0ic3Ryb2tlOiMwMzgwNDg7c3Ryb2tlLXdpZHRoOjEuMDsiLz48dGV4dCBmaWxsPSIjMDAwMDAwIiBmb250LWZhbWlseT0ic2Fucy1zZXJpZiIgZm9udC1zaXplPSIxNCIgbGVuZ3RoQWRqdXN0PSJzcGFjaW5nIiB0ZXh0TGVuZ3RoPSI1MDEiIHg9IjQ5MyIgeT0iMTA5LjE4NzUiPmluaXRQb3dlclNjaGVkdWxlKGNvbnN0IEpzb246OlZhbHVlIHNjaGVkdWxlKSA6IHZvaWQgIC8vICYjMzU3NzQ7JiMzMjYyMjsmIzI0MzIwOyYjMjA4NTE7JiMyNjQyNjsmIzM1NzQ1OyYjMjEwMTA7PC90ZXh0PjxlbGxpcHNlIGN4PSI0ODQiIGN5PSIxMTkuOTI5NyIgZmlsbD0iIzg0QkU4NCIgcng9IjMiIHJ5PSIzIiBzdHlsZT0ic3Ryb2tlOiMwMzgwNDg7c3Ryb2tlLXdpZHRoOjEuMDsiLz48dGV4dCBmaWxsPSIjMDAwMDAwIiBmb250LWZhbWlseT0ic2Fucy1zZXJpZiIgZm9udC1zaXplPSIxNCIgbGVuZ3RoQWRqdXN0PSJzcGFjaW5nIiB0ZXh0TGVuZ3RoPSIzNDYiIHg9IjQ5MyIgeT0iMTI0LjE3MTkiPmdldFBvd2VyU2NoZWR1bGUoKSA6IGludCAgLy8gJiMyNjgxNjsmIzI2NTk3OyYjMjQxODI7JiMyNTE5MTsmIzM0ODkyOyYjMjQzMjA7JiMyMDg1MTsmIzI2NDI2OyYjMzU3NDU7JiMyMTAxMDs8L3RleHQ+PGVsbGlwc2UgY3g9IjQ4NCIgY3k9IjEzNC45MTQxIiBmaWxsPSIjODRCRTg0IiByeD0iMyIgcnk9IjMiIHN0eWxlPSJzdHJva2U6IzAzODA0ODtzdHJva2Utd2lkdGg6MS4wOyIvPjx0ZXh0IGZpbGw9IiMwMDAwMDAiIGZvbnQtZmFtaWx5PSJzYW5zLXNlcmlmIiBmb250LXNpemU9IjE0IiBsZW5ndGhBZGp1c3Q9InNwYWNpbmciIHRleHRMZW5ndGg9IjI5NyIgeD0iNDkzIiB5PSIxMzkuMTU2MyI+cG93ZXJDdHJsKGJvb2wgb25fb2ZmKSA6IGJvb2wgIC8vICYjMjM2MzE7JiMyNDE0OTsmIzI0MzIwOyYjMjA4NTE7PC90ZXh0PjxlbGxpcHNlIGN4PSI0ODQiIGN5PSIxNDkuODk4NCIgZmlsbD0iIzg0QkU4NCIgcng9IjMiIHJ5PSIzIiBzdHlsZT0ic3Ryb2tlOiMwMzgwNDg7c3Ryb2tlLXdpZHRoOjEuMDsiLz48dGV4dCBmaWxsPSIjMDAwMDAwIiBmb250LWZhbWlseT0ic2Fucy1zZXJpZiIgZm9udC1zaXplPSIxNCIgbGVuZ3RoQWRqdXN0PSJzcGFjaW5nIiB0ZXh0TGVuZ3RoPSIyNTQiIHg9IjQ5MyIgeT0iMTU0LjE0MDYiPmF1dG9BZGp1c3QoKSA6IGJvb2wgIC8vICYjMjM2MzE7JiMyNDE0OTsmIzMzMjU4OyYjMjExNjA7JiMyNjY1NzsmIzI3NDkxOzwvdGV4dD48ZWxsaXBzZSBjeD0iNDg0IiBjeT0iMTY0Ljg4MjgiIGZpbGw9IiM4NEJFODQiIHJ4PSIzIiByeT0iMyIgc3R5bGU9InN0cm9rZTojMDM4MDQ4O3N0cm9rZS13aWR0aDoxLjA7Ii8+PHRleHQgZmlsbD0iIzAwMDAwMCIgZm9udC1mYW1pbHk9InNhbnMtc2VyaWYiIGZvbnQtc2l6ZT0iMTQiIGxlbmd0aEFkanVzdD0ic3BhY2luZyIgdGV4dExlbmd0aD0iMzgxIiB4PSI0OTMiIHk9IjE2OS4xMjUiPnNldEJhY2tMaWdodChpbnQgbW9kZSkgOiBib29sICAvLyAmIzM1Nzc0OyYjMzI2MjI7JiMyMzYzMTsmIzI0MTQ5OyYjMzI5NzI7JiMyMDgwOTsmIzI3MTY5OyYjMjQzMzU7JiMyNTUwOTsmIzIxNDc1OzwvdGV4dD48ZWxsaXBzZSBjeD0iNDg0IiBjeT0iMTc5Ljg2NzIiIGZpbGw9IiM4NEJFODQiIHJ4PSIzIiByeT0iMyIgc3R5bGU9InN0cm9rZTojMDM4MDQ4O3N0cm9rZS13aWR0aDoxLjA7Ii8+PHRleHQgZmlsbD0iIzAwMDAwMCIgZm9udC1mYW1pbHk9InNhbnMtc2VyaWYiIGZvbnQtc2l6ZT0iMTQiIGxlbmd0aEFkanVzdD0ic3BhY2luZyIgdGV4dExlbmd0aD0iODcxIiB4PSI0OTMiIHk9IjE4NC4xMDk0Ij5zZXRBdHRyaWJ1dGUoY29uc3Qgc3RkOjpzdHJpbmcmYW1wOyB0eXBlLCBjb25zdCBzdGQ6OnN0cmluZyZhbXA7IGF0dHJOYW1lLCBpbnQgY3VycmVudFZhbHVlLCBpbnQgb3B0aW9uKSA6IGJvb2wgIC8vICYjMzU3NzQ7JiMzMjYyMjsmIzIzNjMxOyYjMjQxNDk7JiMyMzY0NjsmIzI0NjE1OyYjMjU1MDk7JiMyMTQ3NTs8L3RleHQ+PGVsbGlwc2UgY3g9IjQ4NCIgY3k9IjE5NC44NTE2IiBmaWxsPSIjODRCRTg0IiByeD0iMyIgcnk9IjMiIHN0eWxlPSJzdHJva2U6IzAzODA0ODtzdHJva2Utd2lkdGg6MS4wOyIvPjx0ZXh0IGZpbGw9IiMwMDAwMDAiIGZvbnQtZmFtaWx5PSJzYW5zLXNlcmlmIiBmb250LXNpemU9IjE0IiBsZW5ndGhBZGp1c3Q9InNwYWNpbmciIHRleHRMZW5ndGg9IjM4OCIgeD0iNDkzIiB5PSIxOTkuMDkzOCI+Z2V0QXR0cmlidXRlQ2FwcygpIDogSnNvbjo6VmFsdWUgIC8vICYjMzM3MTk7JiMyMTQ2MjsmIzIzNjMxOyYjMjQxNDk7JiMzNTg0MzsmIzMzNDEwOyYjMzMwMjE7JiMyMTE0NzsmIzM4NTk4OzwvdGV4dD48ZWxsaXBzZSBjeD0iNDg0IiBjeT0iMjA5LjgzNTkiIGZpbGw9IiM4NEJFODQiIHJ4PSIzIiByeT0iMyIgc3R5bGU9InN0cm9rZTojMDM4MDQ4O3N0cm9rZS13aWR0aDoxLjA7Ii8+PHRleHQgZmlsbD0iIzAwMDAwMCIgZm9udC1mYW1pbHk9InNhbnMtc2VyaWYiIGZvbnQtc2l6ZT0iMTQiIGxlbmd0aEFkanVzdD0ic3BhY2luZyIgdGV4dExlbmd0aD0iNDg2IiB4PSI0OTMiIHk9IjIxNC4wNzgxIj5zd2l0Y2hJbnB1dFNvdXJjZShzdGQ6OnN0cmluZyBkZXZpY2VJRCkgOiBib29sICAvLyAmIzIwOTk5OyYjMjU0NDI7JiMyMzYzMTsmIzI0MTQ5OyYjMzAzNDA7JiMzNjc1NTsmIzIwODM3OyYjMjA0NDk7JiMyMTQ5NTs8L3RleHQ+PGVsbGlwc2UgY3g9IjQ4NCIgY3k9IjIyNC44MjAzIiBmaWxsPSIjODRCRTg0IiByeD0iMyIgcnk9IjMiIHN0eWxlPSJzdHJva2U6IzAzODA0ODtzdHJva2Utd2lkdGg6MS4wOyIvPjx0ZXh0IGZpbGw9IiMwMDAwMDAiIGZvbnQtZmFtaWx5PSJzYW5zLXNlcmlmIiBmb250LXNpemU9IjE0IiBsZW5ndGhBZGp1c3Q9InNwYWNpbmciIHRleHRMZW5ndGg9IjU1NiIgeD0iNDkzIiB5PSIyMjkuMDYyNSI+bWFwQW5hbG9nT3V0KHN0ZDo6c3RyaW5nIGRldmljZUlEKSA6IGludCAgLy8gJiMzMzcxOTsmIzIxNDYyOyYjMjEwNDA7JiMzNjgyNTsmIzIwMDEwOyYjMjM2MzE7JiMyNDE0OTsmIzIzNTQ1OyYjMjQyMTI7JiMzMDM0MDsmIzI3MTY5OyYjMjUzMTE7JiMzMDY5NzsmIzM4NDUzOyYjMzAzNDA7JiMzNjc1NTsmIzIwOTg2OzwvdGV4dD48ZWxsaXBzZSBjeD0iNDg0IiBjeT0iMjM5LjgwNDciIGZpbGw9IiM4NEJFODQiIHJ4PSIzIiByeT0iMyIgc3R5bGU9InN0cm9rZTojMDM4MDQ4O3N0cm9rZS13aWR0aDoxLjA7Ii8+PHRleHQgZmlsbD0iIzAwMDAwMCIgZm9udC1mYW1pbHk9InNhbnMtc2VyaWYiIGZvbnQtc2l6ZT0iMTQiIGxlbmd0aEFkanVzdD0ic3BhY2luZyIgdGV4dExlbmd0aD0iMzY2IiB4PSI0OTMiIHk9IjI0NC4wNDY5Ij5ibGFja1NjcmVlbkNvbnRyb2woYm9vbCBiRW5hYmxlKSA6IGJvb2wgIC8vICYjNDA2NTc7JiMyMzYzMTsmIzI1NTExOyYjMjEwNDY7PC90ZXh0PjxlbGxpcHNlIGN4PSI0ODQiIGN5PSIyNTQuNzg5MSIgZmlsbD0iIzg0QkU4NCIgcng9IjMiIHJ5PSIzIiBzdHlsZT0ic3Ryb2tlOiMwMzgwNDg7c3Ryb2tlLXdpZHRoOjEuMDsiLz48dGV4dCBmaWxsPSIjMDAwMDAwIiBmb250LWZhbWlseT0ic2Fucy1zZXJpZiIgZm9udC1zaXplPSIxNCIgbGVuZ3RoQWRqdXN0PSJzcGFjaW5nIiB0ZXh0TGVuZ3RoPSIyMTMiIHg9IjQ5MyIgeT0iMjU5LjAzMTMiPmR1bXAoKSA6IHZvaWQgIC8vICYjMzU3NzQ7JiMzMjYyMjsmIzI3OTc5OyYjMzU3OTc7JiMzMDAxMTsmIzM4NzU0OzwvdGV4dD48ZWxsaXBzZSBjeD0iNDg0IiBjeT0iMjY5Ljc3MzQiIGZpbGw9IiM4NEJFODQiIHJ4PSIzIiByeT0iMyIgc3R5bGU9InN0cm9rZTojMDM4MDQ4O3N0cm9rZS13aWR0aDoxLjA7Ii8+PHRleHQgZmlsbD0iIzAwMDAwMCIgZm9udC1mYW1pbHk9InNhbnMtc2VyaWYiIGZvbnQtc2l6ZT0iMTQiIGxlbmd0aEFkanVzdD0ic3BhY2luZyIgdGV4dExlbmd0aD0iNDY0IiB4PSI0OTMiIHk9IjI3NC4wMTU2Ij5zZXRTY3JlZW5Db250cm9sKGNvbnN0IGludCBzY3JlZW5DdHJsVHlwZSkgOiBib29sICAvLyAmIzM1Nzc0OyYjMzI2MjI7JiMyNzk3OTsmIzM1Nzk3OyYjMzAwMTE7JiMzODc1NDs8L3RleHQ+PGVsbGlwc2UgY3g9IjQ4NCIgY3k9IjI4NC43NTc4IiBmaWxsPSIjODRCRTg0IiByeD0iMyIgcnk9IjMiIHN0eWxlPSJzdHJva2U6IzAzODA0ODtzdHJva2Utd2lkdGg6MS4wOyIvPjx0ZXh0IGZpbGw9IiMwMDAwMDAiIGZvbnQtZmFtaWx5PSJzYW5zLXNlcmlmIiBmb250LXNpemU9IjE0IiBsZW5ndGhBZGp1c3Q9InNwYWNpbmciIHRleHRMZW5ndGg9IjU5MSIgeD0iNDkzIiB5PSIyODkiPmdldFNlbnNvckluZm8oY29uc3Qgc3RkOjpzdHJpbmcmYW1wOyBhdHRyTmFtZSwgaW50ICZhbXA7YXR0clZhbHVlKSA6IGJvb2wgIC8vICYjMzM3MTk7JiMyMTQ2MjsmIzIwMjU2OyYjMjQ4NjM7JiMyMjEyMDsmIzIwNDQ5OyYjMjQ2ODc7PC90ZXh0PjwvZz48IS0tY2xhc3MgQ1BoeXNpY1NjcmVlbi0tPjxnIGlkPSJlbGVtX0NQaHlzaWNTY3JlZW4iPjxyZWN0IGNvZGVMaW5lPSIyMCIgZmlsbD0iI0YxRjFGMSIgaGVpZ2h0PSI1NDIuNDg0NCIgaWQ9IkNQaHlzaWNTY3JlZW4iIHJ4PSIyLjUiIHJ5PSIyLjUiIHN0eWxlPSJzdHJva2U6IzE4MTgxODtzdHJva2Utd2lkdGg6MC41OyIgd2lkdGg9Ijg5NyIgeD0iNyIgeT0iMzU1Ii8+PGVsbGlwc2UgY3g9IjQwNS43NSIgY3k9IjM3MSIgZmlsbD0iI0FERDFCMiIgcng9IjExIiByeT0iMTEiIHN0eWxlPSJzdHJva2U6IzE4MTgxODtzdHJva2Utd2lkdGg6MS4wOyIvPjxwYXRoIGQ9Ik00MDMuMzc1LDM3NS4yNSBMNDAzLjM3NSwzNzcgTDQwOC4zMTI1LDM3NyBMNDA4LjMxMjUsMzc1LjI1IEw0MDMuMzc1LDM3NS4yNSBaIE00MDQuMDYyNSwzNzUuOTM3NSBRNDA0LjA2MjUsMzc1LjkzNzUgNDA0LjA2MjUsMzY2Ljc1IEw0MDIuMzEyNSwzNjYuNzUgUTQwMi4zMTI1LDM2Ni43NSA0MDIuMzEyNSwzNzUuOTM3NSBMNDA0LjA2MjUsMzc1LjkzNzUgWiBNNDA3LjYyNSwzNzUuOTM3NSBMNDA5LjM3NSwzNzUuOTM3NSBRNDA5LjM3NSwzNzUuOTM3NSA0MDkuMzc1LDM3My4xMjUgTDQwNy42MjUsMzczLjEyNSBRNDA3LjYyNSwzNzMuMTI1IDQwNy42MjUsMzc1LjkzNzUgWiBNNDA3LjYyNSwzNjYuNzUgUTQwNy42MjUsMzY2Ljc1IDQwNy42MjUsMzY5LjU2MjUgTDQwOS4zNzUsMzY5LjU2MjUgUTQwOS4zNzUsMzY5LjU2MjUgNDA5LjM3NSwzNjYuNzUgTDQwNy42MjUsMzY2Ljc1IFogTTQwMy4zNzUsMzY3LjQzNzUgTDQwOC4zMTI1LDM2Ny40Mzc1IEw0MDguMzEyNSwzNjUuNjg3NSBMNDAzLjM3NSwzNjUuNjg3NSBMNDAzLjM3NSwzNjcuNDM3NSBaICIgZmlsbD0iIzAwMDAwMCIvPjx0ZXh0IGZpbGw9IiMwMDAwMDAiIGZvbnQtZmFtaWx5PSJzYW5zLXNlcmlmIiBmb250LXNpemU9IjE0IiBsZW5ndGhBZGp1c3Q9InNwYWNpbmciIHRleHRMZW5ndGg9IjkxIiB4PSI0MjYuMjUiIHk9IjM3Ni43NDIyIj5DUGh5c2ljU2NyZWVuPC90ZXh0PjxsaW5lIHN0eWxlPSJzdHJva2U6IzE4MTgxODtzdHJva2Utd2lkdGg6MC41OyIgeDE9IjgiIHgyPSI5MDMiIHkxPSIzODciIHkyPSIzODciLz48cmVjdCBmaWxsPSJub25lIiBoZWlnaHQ9IjYiIHN0eWxlPSJzdHJva2U6I0M4MjkzMDtzdHJva2Utd2lkdGg6MS4wOyIgd2lkdGg9IjYiIHg9IjE1IiB5PSIzOTYuOTkyMiIvPjx0ZXh0IGZpbGw9IiMwMDAwMDAiIGZvbnQtZmFtaWx5PSJzYW5zLXNlcmlmIiBmb250LXNpemU9IjE0IiBsZW5ndGhBZGp1c3Q9InNwYWNpbmciIHRleHRMZW5ndGg9IjQwMCIgeD0iMjciIHk9IjQwNC4yMzQ0Ij5tX1Byb3RvY29sSGFuZGxlciA6IFNjcmVlblByb3RvY29sSGFuZGxlciogIC8vICYjMjEzMjc7JiMzNTc1ODsmIzIyNzg4OyYjMjk3MDI7JiMyMjEyMDs8L3RleHQ+PHJlY3QgZmlsbD0ibm9uZSIgaGVpZ2h0PSI2IiBzdHlsZT0ic3Ryb2tlOiNDODI5MzA7c3Ryb2tlLXdpZHRoOjEuMDsiIHdpZHRoPSI2IiB4PSIxNSIgeT0iNDExLjk3NjYiLz48dGV4dCBmaWxsPSIjMDAwMDAwIiBmb250LWZhbWlseT0ic2Fucy1zZXJpZiIgZm9udC1zaXplPSIxNCIgbGVuZ3RoQWRqdXN0PSJzcGFjaW5nIiB0ZXh0TGVuZ3RoPSIxNjkiIHg9IjI3IiB5PSI0MTkuMjE4OCI+bV9jaGFubmVsIDogaW50ICAvLyAmIzM2ODkwOyYjMzY5NDc7PC90ZXh0PjxyZWN0IGZpbGw9Im5vbmUiIGhlaWdodD0iNiIgc3R5bGU9InN0cm9rZTojQzgyOTMwO3N0cm9rZS13aWR0aDoxLjA7IiB3aWR0aD0iNiIgeD0iMTUiIHk9IjQyNi45NjA5Ii8+PHRleHQgZmlsbD0iIzAwMDAwMCIgZm9udC1mYW1pbHk9InNhbnMtc2VyaWYiIGZvbnQtc2l6ZT0iMTQiIGxlbmd0aEFkanVzdD0ic3BhY2luZyIgdGV4dExlbmd0aD0iMjI1IiB4PSIyNyIgeT0iNDM0LjIwMzEiPm1fY3VycmVudFBvcnQgOiBpbnQgIC8vICYjMjQ0MDM7JiMyMTA2OTsmIzMxNDcxOyYjMjE0NzU7PC90ZXh0PjxyZWN0IGZpbGw9Im5vbmUiIGhlaWdodD0iNiIgc3R5bGU9InN0cm9rZTojQzgyOTMwO3N0cm9rZS13aWR0aDoxLjA7IiB3aWR0aD0iNiIgeD0iMTUiIHk9IjQ0MS45NDUzIi8+PHRleHQgZmlsbD0iIzAwMDAwMCIgZm9udC1mYW1pbHk9InNhbnMtc2VyaWYiIGZvbnQtc2l6ZT0iMTQiIGxlbmd0aEFkanVzdD0ic3BhY2luZyIgdGV4dExlbmd0aD0iMjY3IiB4PSIyNyIgeT0iNDQ5LjE4NzUiPm1fZGV2Y2llTWFwIDogQ29ubmVjdF9NYXAgIC8vICYjMzU3NzQ7JiMyMjc5MTsmIzI2MTQ0OyYjMjM1NTY7PC90ZXh0PjxyZWN0IGZpbGw9Im5vbmUiIGhlaWdodD0iNiIgc3R5bGU9InN0cm9rZTojQzgyOTMwO3N0cm9rZS13aWR0aDoxLjA7IiB3aWR0aD0iNiIgeD0iMTUiIHk9IjQ1Ni45Mjk3Ii8+PHRleHQgZmlsbD0iIzAwMDAwMCIgZm9udC1mYW1pbHk9InNhbnMtc2VyaWYiIGZvbnQtc2l6ZT0iMTQiIGxlbmd0aEFkanVzdD0ic3BhY2luZyIgdGV4dExlbmd0aD0iMjExIiB4PSIyNyIgeT0iNDY0LjE3MTkiPm1fcG9ydGluZGV4IDogaW50ICAvLyAmIzMxNDcxOyYjMjE0NzU7JiMzMjAzNDsmIzI0MzQxOzwvdGV4dD48cmVjdCBmaWxsPSJub25lIiBoZWlnaHQ9IjYiIHN0eWxlPSJzdHJva2U6I0M4MjkzMDtzdHJva2Utd2lkdGg6MS4wOyIgd2lkdGg9IjYiIHg9IjE1IiB5PSI0NzEuOTE0MSIvPjx0ZXh0IGZpbGw9IiMwMDAwMDAiIGZvbnQtZmFtaWx5PSJzYW5zLXNlcmlmIiBmb250LXNpemU9IjE0IiBsZW5ndGhBZGp1c3Q9InNwYWNpbmciIHRleHRMZW5ndGg9IjIwNCIgeD0iMjciIHk9IjQ3OS4xNTYzIj5tX2FkZHIgOiBzdGQ6OnN0cmluZyAgLy8gJiMyMjMyMDsmIzIyMzM2OzwvdGV4dD48cmVjdCBmaWxsPSJub25lIiBoZWlnaHQ9IjYiIHN0eWxlPSJzdHJva2U6I0M4MjkzMDtzdHJva2Utd2lkdGg6MS4wOyIgd2lkdGg9IjYiIHg9IjE1IiB5PSI0ODYuODk4NCIvPjx0ZXh0IGZpbGw9IiMwMDAwMDAiIGZvbnQtZmFtaWx5PSJzYW5zLXNlcmlmIiBmb250LXNpemU9IjE0IiBsZW5ndGhBZGp1c3Q9InNwYWNpbmciIHRleHRMZW5ndGg9IjIzMiIgeD0iMjciIHk9IjQ5NC4xNDA2Ij5tX3Byb3RvY29sIDogc3RkOjpzdHJpbmcgIC8vICYjMjEzMjc7JiMzNTc1ODs8L3RleHQ+PHJlY3QgZmlsbD0ibm9uZSIgaGVpZ2h0PSI2IiBzdHlsZT0ic3Ryb2tlOiNDODI5MzA7c3Ryb2tlLXdpZHRoOjEuMDsiIHdpZHRoPSI2IiB4PSIxNSIgeT0iNTAxLjg4MjgiLz48dGV4dCBmaWxsPSIjMDAwMDAwIiBmb250LWZhbWlseT0ic2Fucy1zZXJpZiIgZm9udC1zaXplPSIxNCIgbGVuZ3RoQWRqdXN0PSJzcGFjaW5nIiB0ZXh0TGVuZ3RoPSIxOTAiIHg9IjI3IiB5PSI1MDkuMTI1Ij5tX2F0dHIgOiBDT01NX0FUVFIgIC8vICYjMjM2NDY7JiMyNDYxNTs8L3RleHQ+PHJlY3QgZmlsbD0ibm9uZSIgaGVpZ2h0PSI2IiBzdHlsZT0ic3Ryb2tlOiNDODI5MzA7c3Ryb2tlLXdpZHRoOjEuMDsiIHdpZHRoPSI2IiB4PSIxNSIgeT0iNTE2Ljg2NzIiLz48dGV4dCBmaWxsPSIjMDAwMDAwIiBmb250LWZhbWlseT0ic2Fucy1zZXJpZiIgZm9udC1zaXplPSIxNCIgbGVuZ3RoQWRqdXN0PSJzcGFjaW5nIiB0ZXh0TGVuZ3RoPSIzMTYiIHg9IjI3IiB5PSI1MjQuMTA5NCI+bV9ibG9ja1NjaGVkdWxlIDogTWFwQmxvY2tTY2hlZHVsZSAgLy8gJiMyMjM1OTsmIzM1NzQ1OyYjMjEwMTA7PC90ZXh0PjxyZWN0IGZpbGw9Im5vbmUiIGhlaWdodD0iNiIgc3R5bGU9InN0cm9rZTojQzgyOTMwO3N0cm9rZS13aWR0aDoxLjA7IiB3aWR0aD0iNiIgeD0iMTUiIHk9IjUzMS44NTE2Ii8+PHRleHQgZmlsbD0iIzAwMDAwMCIgZm9udC1mYW1pbHk9InNhbnMtc2VyaWYiIGZvbnQtc2l6ZT0iMTQiIGxlbmd0aEFkanVzdD0ic3BhY2luZyIgdGV4dExlbmd0aD0iMTkyIiB4PSIyNyIgeT0iNTM5LjA5MzgiPm1fcG93ZXIgOiBDVGltZXIgIC8vICYjMjM0NTA7JiMyNjEwMjsmIzIyMTIwOzwvdGV4dD48cmVjdCBmaWxsPSJub25lIiBoZWlnaHQ9IjYiIHN0eWxlPSJzdHJva2U6I0M4MjkzMDtzdHJva2Utd2lkdGg6MS4wOyIgd2lkdGg9IjYiIHg9IjE1IiB5PSI1NDYuODM1OSIvPjx0ZXh0IGZpbGw9IiMwMDAwMDAiIGZvbnQtZmFtaWx5PSJzYW5zLXNlcmlmIiBmb250LXNpemU9IjE0IiBsZW5ndGhBZGp1c3Q9InNwYWNpbmciIHRleHRMZW5ndGg9IjE3NyIgeD0iMjciIHk9IjU1NC4wNzgxIj5tX2NtZHMgOiBzdGQgICAgLy8gJiMyMzQ1MDsmIzI2MTAyOyYjMjIxMjA7PC90ZXh0PjxyZWN0IGZpbGw9Im5vbmUiIGhlaWdodD0iNiIgc3R5bGU9InN0cm9rZTojQzgyOTMwO3N0cm9rZS13aWR0aDoxLjA7IiB3aWR0aD0iNiIgeD0iMTUiIHk9IjU2MS44MjAzIi8+PHRleHQgZmlsbD0iIzAwMDAwMCIgZm9udC1mYW1pbHk9InNhbnMtc2VyaWYiIGZvbnQtc2l6ZT0iMTQiIGxlbmd0aEFkanVzdD0ic3BhY2luZyIgdGV4dExlbmd0aD0iMzEwIiB4PSIyNyIgeT0iNTY5LjA2MjUiPm1fY21kcyA6IHN0ZDo6dmVjdG9yJmx0O3N0ZDo6c3RyaW5nJmd0OyAgLy8gJiMyMTYyOTsmIzIwMTk2OyYjMzg1OTg7PC90ZXh0PjxyZWN0IGZpbGw9Im5vbmUiIGhlaWdodD0iNiIgc3R5bGU9InN0cm9rZTojQzgyOTMwO3N0cm9rZS13aWR0aDoxLjA7IiB3aWR0aD0iNiIgeD0iMTUiIHk9IjU3Ni44MDQ3Ii8+PHRleHQgZmlsbD0iIzAwMDAwMCIgZm9udC1mYW1pbHk9InNhbnMtc2VyaWYiIGZvbnQtc2l6ZT0iMTQiIGxlbmd0aEFkanVzdD0ic3BhY2luZyIgdGV4dExlbmd0aD0iMTk4IiB4PSIyNyIgeT0iNTg0LjA0NjkiPm1fY21kIDogc3RkOjpzdHJpbmcgIC8vICYjMjE2Mjk7JiMyMDE5Njs8L3RleHQ+PHJlY3QgZmlsbD0ibm9uZSIgaGVpZ2h0PSI2IiBzdHlsZT0ic3Ryb2tlOiNDODI5MzA7c3Ryb2tlLXdpZHRoOjEuMDsiIHdpZHRoPSI2IiB4PSIxNSIgeT0iNTkxLjc4OTEiLz48dGV4dCBmaWxsPSIjMDAwMDAwIiBmb250LWZhbWlseT0ic2Fucy1zZXJpZiIgZm9udC1zaXplPSIxNCIgbGVuZ3RoQWRqdXN0PSJzcGFjaW5nIiB0ZXh0TGVuZ3RoPSIyOTciIHg9IjI3IiB5PSI1OTkuMDMxMyI+bV9jb21tV3JpdGVNdXRleCA6IENNdXRleCAgLy8gJiMzNjg5MDsmIzIwNDQ5OyYjMjA4ODk7JiMyMDExNDsmIzI2MDIxOyYjMzczMjc7PC90ZXh0PjxsaW5lIHN0eWxlPSJzdHJva2U6IzE4MTgxODtzdHJva2Utd2lkdGg6MC41OyIgeDE9IjgiIHgyPSI5MDMiIHkxPSI2MDQuNzgxMyIgeTI9IjYwNC43ODEzIi8+PGVsbGlwc2UgY3g9IjE4IiBjeT0iNjE3Ljc3MzQiIGZpbGw9IiM4NEJFODQiIHJ4PSIzIiByeT0iMyIgc3R5bGU9InN0cm9rZTojMDM4MDQ4O3N0cm9rZS13aWR0aDoxLjA7Ii8+PHRleHQgZmlsbD0iIzAwMDAwMCIgZm9udC1mYW1pbHk9InNhbnMtc2VyaWYiIGZvbnQtc2l6ZT0iMTQiIGxlbmd0aEFkanVzdD0ic3BhY2luZyIgdGV4dExlbmd0aD0iMzAzIiB4PSIyNyIgeT0iNjIyLjAxNTYiPkNQaHlzaWNTY3JlZW4oaW50IHZpZGVvb3V0cHV0KSAgLy8gJiMyNjUwMDsmIzM2ODk2OyYjMjA5ODk7JiMyNTk2ODs8L3RleHQ+PGVsbGlwc2UgY3g9IjE4IiBjeT0iNjMyLjc1NzgiIGZpbGw9IiM4NEJFODQiIHJ4PSIzIiByeT0iMyIgc3R5bGU9InN0cm9rZTojMDM4MDQ4O3N0cm9rZS13aWR0aDoxLjA7Ii8+PHRleHQgZmlsbD0iIzAwMDAwMCIgZm9udC1mYW1pbHk9InNhbnMtc2VyaWYiIGZvbnQtc2l6ZT0iMTQiIGxlbmd0aEFkanVzdD0ic3BhY2luZyIgdGV4dExlbmd0aD0iMjA1IiB4PSIyNyIgeT0iNjM3Ij5+Q1BoeXNpY1NjcmVlbigpICAvLyAmIzI2NTEyOyYjMjY1MDA7JiMyMDk4OTsmIzI1OTY4OzwvdGV4dD48ZWxsaXBzZSBjeD0iMTgiIGN5PSI2NDcuNzQyMiIgZmlsbD0iIzg0QkU4NCIgcng9IjMiIHJ5PSIzIiBzdHlsZT0ic3Ryb2tlOiMwMzgwNDg7c3Ryb2tlLXdpZHRoOjEuMDsiLz48dGV4dCBmaWxsPSIjMDAwMDAwIiBmb250LWZhbWlseT0ic2Fucy1zZXJpZiIgZm9udC1zaXplPSIxNCIgbGVuZ3RoQWRqdXN0PSJzcGFjaW5nIiB0ZXh0TGVuZ3RoPSIzMjQiIHg9IjI3IiB5PSI2NTEuOTg0NCI+Z2V0QWRkcigpIDogc3RkOjpzdHJpbmcgIC8vICYjMzM3MTk7JiMyMTQ2MjsmIzI0NDAzOyYjMjEwNjk7JiMyMzYzMTsmIzI0MTQ5OyYjMzAzNDA7JiMyMjMyMDsmIzIyMzM2OzwvdGV4dD48ZWxsaXBzZSBjeD0iMTgiIGN5PSI2NjIuNzI2NiIgZmlsbD0iIzg0QkU4NCIgcng9IjMiIHJ5PSIzIiBzdHlsZT0ic3Ryb2tlOiMwMzgwNDg7c3Ryb2tlLXdpZHRoOjEuMDsiLz48dGV4dCBmaWxsPSIjMDAwMDAwIiBmb250LWZhbWlseT0ic2Fucy1zZXJpZiIgZm9udC1zaXplPSIxNCIgbGVuZ3RoQWRqdXN0PSJzcGFjaW5nIiB0ZXh0TGVuZ3RoPSI1MjIiIHg9IjI3IiB5PSI2NjYuOTY4OCI+aW5pdENvbnRyb2xQYXJtcyhjb25zdCBKc29uOjpWYWx1ZSAmYW1wO2F0dHJpYnV0ZSkgOiB2b2lkICAvLyAmIzI2MzU2OyYjMjYwMzI7JiMyMzYzMTsmIzI0MTQ5OyYjMjU1MTE7JiMyMTA0NjsmIzIwNDQ5OyYjMjQ2ODc7PC90ZXh0PjxlbGxpcHNlIGN4PSIxOCIgY3k9IjY3Ny43MTA5IiBmaWxsPSIjODRCRTg0IiByeD0iMyIgcnk9IjMiIHN0eWxlPSJzdHJva2U6IzAzODA0ODtzdHJva2Utd2lkdGg6MS4wOyIvPjx0ZXh0IGZpbGw9IiMwMDAwMDAiIGZvbnQtZmFtaWx5PSJzYW5zLXNlcmlmIiBmb250LXNpemU9IjE0IiBsZW5ndGhBZGp1c3Q9InNwYWNpbmciIHRleHRMZW5ndGg9IjUwMSIgeD0iMjciIHk9IjY4MS45NTMxIj5pbml0UG93ZXJTY2hlZHVsZShjb25zdCBKc29uOjpWYWx1ZSBzY2hlZHVsZSkgOiB2b2lkICAvLyAmIzM1Nzc0OyYjMzI2MjI7JiMyNDMyMDsmIzIwODUxOyYjMjY0MjY7JiMzNTc0NTsmIzIxMDEwOzwvdGV4dD48ZWxsaXBzZSBjeD0iMTgiIGN5PSI2OTIuNjk1MyIgZmlsbD0iIzg0QkU4NCIgcng9IjMiIHJ5PSIzIiBzdHlsZT0ic3Ryb2tlOiMwMzgwNDg7c3Ryb2tlLXdpZHRoOjEuMDsiLz48dGV4dCBmaWxsPSIjMDAwMDAwIiBmb250LWZhbWlseT0ic2Fucy1zZXJpZiIgZm9udC1zaXplPSIxNCIgbGVuZ3RoQWRqdXN0PSJzcGFjaW5nIiB0ZXh0TGVuZ3RoPSIzNDYiIHg9IjI3IiB5PSI2OTYuOTM3NSI+Z2V0UG93ZXJTY2hlZHVsZSgpIDogaW50ICAvLyAmIzI2ODE2OyYjMjY1OTc7JiMyNDE4MjsmIzI1MTkxOyYjMzQ4OTI7JiMyNDMyMDsmIzIwODUxOyYjMjY0MjY7JiMzNTc0NTsmIzIxMDEwOzwvdGV4dD48ZWxsaXBzZSBjeD0iMTgiIGN5PSI3MDcuNjc5NyIgZmlsbD0iIzg0QkU4NCIgcng9IjMiIHJ5PSIzIiBzdHlsZT0ic3Ryb2tlOiMwMzgwNDg7c3Ryb2tlLXdpZHRoOjEuMDsiLz48dGV4dCBmaWxsPSIjMDAwMDAwIiBmb250LWZhbWlseT0ic2Fucy1zZXJpZiIgZm9udC1zaXplPSIxNCIgbGVuZ3RoQWRqdXN0PSJzcGFjaW5nIiB0ZXh0TGVuZ3RoPSIyOTciIHg9IjI3IiB5PSI3MTEuOTIxOSI+cG93ZXJDdHJsKGJvb2wgb25fb2ZmKSA6IGJvb2wgIC8vICYjMjM2MzE7JiMyNDE0OTsmIzI0MzIwOyYjMjA4NTE7PC90ZXh0PjxlbGxpcHNlIGN4PSIxOCIgY3k9IjcyMi42NjQxIiBmaWxsPSIjODRCRTg0IiByeD0iMyIgcnk9IjMiIHN0eWxlPSJzdHJva2U6IzAzODA0ODtzdHJva2Utd2lkdGg6MS4wOyIvPjx0ZXh0IGZpbGw9IiMwMDAwMDAiIGZvbnQtZmFtaWx5PSJzYW5zLXNlcmlmIiBmb250LXNpemU9IjE0IiBsZW5ndGhBZGp1c3Q9InNwYWNpbmciIHRleHRMZW5ndGg9IjI1NCIgeD0iMjciIHk9IjcyNi45MDYzIj5hdXRvQWRqdXN0KCkgOiBib29sICAvLyAmIzIzNjMxOyYjMjQxNDk7JiMzMzI1ODsmIzIxMTYwOyYjMjY2NTc7JiMyNzQ5MTs8L3RleHQ+PGVsbGlwc2UgY3g9IjE4IiBjeT0iNzM3LjY0ODQiIGZpbGw9IiM4NEJFODQiIHJ4PSIzIiByeT0iMyIgc3R5bGU9InN0cm9rZTojMDM4MDQ4O3N0cm9rZS13aWR0aDoxLjA7Ii8+PHRleHQgZmlsbD0iIzAwMDAwMCIgZm9udC1mYW1pbHk9InNhbnMtc2VyaWYiIGZvbnQtc2l6ZT0iMTQiIGxlbmd0aEFkanVzdD0ic3BhY2luZyIgdGV4dExlbmd0aD0iMzgxIiB4PSIyNyIgeT0iNzQxLjg5MDYiPnNldEJhY2tMaWdodChpbnQgbW9kZSkgOiBib29sICAvLyAmIzM1Nzc0OyYjMzI2MjI7JiMyMzYzMTsmIzI0MTQ5OyYjMzI5NzI7JiMyMDgwOTsmIzI3MTY5OyYjMjQzMzU7JiMyNTUwOTsmIzIxNDc1OzwvdGV4dD48ZWxsaXBzZSBjeD0iMTgiIGN5PSI3NTIuNjMyOCIgZmlsbD0iIzg0QkU4NCIgcng9IjMiIHJ5PSIzIiBzdHlsZT0ic3Ryb2tlOiMwMzgwNDg7c3Ryb2tlLXdpZHRoOjEuMDsiLz48dGV4dCBmaWxsPSIjMDAwMDAwIiBmb250LWZhbWlseT0ic2Fucy1zZXJpZiIgZm9udC1zaXplPSIxNCIgbGVuZ3RoQWRqdXN0PSJzcGFjaW5nIiB0ZXh0TGVuZ3RoPSI4NzEiIHg9IjI3IiB5PSI3NTYuODc1Ij5zZXRBdHRyaWJ1dGUoY29uc3Qgc3RkOjpzdHJpbmcmYW1wOyB0eXBlLCBjb25zdCBzdGQ6OnN0cmluZyZhbXA7IGF0dHJOYW1lLCBpbnQgY3VycmVudFZhbHVlLCBpbnQgb3B0aW9uKSA6IGJvb2wgIC8vICYjMzU3NzQ7JiMzMjYyMjsmIzIzNjMxOyYjMjQxNDk7JiMyMzY0NjsmIzI0NjE1OyYjMjU1MDk7JiMyMTQ3NTs8L3RleHQ+PGVsbGlwc2UgY3g9IjE4IiBjeT0iNzY3LjYxNzIiIGZpbGw9IiM4NEJFODQiIHJ4PSIzIiByeT0iMyIgc3R5bGU9InN0cm9rZTojMDM4MDQ4O3N0cm9rZS13aWR0aDoxLjA7Ii8+PHRleHQgZmlsbD0iIzAwMDAwMCIgZm9udC1mYW1pbHk9InNhbnMtc2VyaWYiIGZvbnQtc2l6ZT0iMTQiIGxlbmd0aEFkanVzdD0ic3BhY2luZyIgdGV4dExlbmd0aD0iMzg4IiB4PSIyNyIgeT0iNzcxLjg1OTQiPmdldEF0dHJpYnV0ZUNhcHMoKSA6IEpzb246OlZhbHVlICAvLyAmIzMzNzE5OyYjMjE0NjI7JiMyMzYzMTsmIzI0MTQ5OyYjMzU4NDM7JiMzMzQxMDsmIzMzMDIxOyYjMjExNDc7JiMzODU5ODs8L3RleHQ+PGVsbGlwc2UgY3g9IjE4IiBjeT0iNzgyLjYwMTYiIGZpbGw9IiM4NEJFODQiIHJ4PSIzIiByeT0iMyIgc3R5bGU9InN0cm9rZTojMDM4MDQ4O3N0cm9rZS13aWR0aDoxLjA7Ii8+PHRleHQgZmlsbD0iIzAwMDAwMCIgZm9udC1mYW1pbHk9InNhbnMtc2VyaWYiIGZvbnQtc2l6ZT0iMTQiIGxlbmd0aEFkanVzdD0ic3BhY2luZyIgdGV4dExlbmd0aD0iNDg2IiB4PSIyNyIgeT0iNzg2Ljg0MzgiPnN3aXRjaElucHV0U291cmNlKHN0ZDo6c3RyaW5nIGRldmljZUlEKSA6IGJvb2wgIC8vICYjMjA5OTk7JiMyNTQ0MjsmIzIzNjMxOyYjMjQxNDk7JiMzMDM0MDsmIzM2NzU1OyYjMjA4Mzc7JiMyMDQ0OTsmIzIxNDk1OzwvdGV4dD48ZWxsaXBzZSBjeD0iMTgiIGN5PSI3OTcuNTg1OSIgZmlsbD0iIzg0QkU4NCIgcng9IjMiIHJ5PSIzIiBzdHlsZT0ic3Ryb2tlOiMwMzgwNDg7c3Ryb2tlLXdpZHRoOjEuMDsiLz48dGV4dCBmaWxsPSIjMDAwMDAwIiBmb250LWZhbWlseT0ic2Fucy1zZXJpZiIgZm9udC1zaXplPSIxNCIgbGVuZ3RoQWRqdXN0PSJzcGFjaW5nIiB0ZXh0TGVuZ3RoPSI1NTYiIHg9IjI3IiB5PSI4MDEuODI4MSI+bWFwQW5hbG9nT3V0KHN0ZDo6c3RyaW5nIGRldmljZUlEKSA6IGludCAgLy8gJiMzMzcxOTsmIzIxNDYyOyYjMjEwNDA7JiMzNjgyNTsmIzIwMDEwOyYjMjM2MzE7JiMyNDE0OTsmIzIzNTQ1OyYjMjQyMTI7JiMzMDM0MDsmIzI3MTY5OyYjMjUzMTE7JiMzMDY5NzsmIzM4NDUzOyYjMzAzNDA7JiMzNjc1NTsmIzIwOTg2OzwvdGV4dD48ZWxsaXBzZSBjeD0iMTgiIGN5PSI4MTIuNTcwMyIgZmlsbD0iIzg0QkU4NCIgcng9IjMiIHJ5PSIzIiBzdHlsZT0ic3Ryb2tlOiMwMzgwNDg7c3Ryb2tlLXdpZHRoOjEuMDsiLz48dGV4dCBmaWxsPSIjMDAwMDAwIiBmb250LWZhbWlseT0ic2Fucy1zZXJpZiIgZm9udC1zaXplPSIxNCIgbGVuZ3RoQWRqdXN0PSJzcGFjaW5nIiB0ZXh0TGVuZ3RoPSIyMTMiIHg9IjI3IiB5PSI4MTYuODEyNSI+ZHVtcCgpIDogdm9pZCAgLy8gJiMzNTc3NDsmIzMyNjIyOyYjMjc5Nzk7JiMzNTc5NzsmIzMwMDExOyYjMzg3NTQ7PC90ZXh0PjxlbGxpcHNlIGN4PSIxOCIgY3k9IjgyNy41NTQ3IiBmaWxsPSIjODRCRTg0IiByeD0iMyIgcnk9IjMiIHN0eWxlPSJzdHJva2U6IzAzODA0ODtzdHJva2Utd2lkdGg6MS4wOyIvPjx0ZXh0IGZpbGw9IiMwMDAwMDAiIGZvbnQtZmFtaWx5PSJzYW5zLXNlcmlmIiBmb250LXNpemU9IjE0IiBsZW5ndGhBZGp1c3Q9InNwYWNpbmciIHRleHRMZW5ndGg9IjM2NiIgeD0iMjciIHk9IjgzMS43OTY5Ij5ibGFja1NjcmVlbkNvbnRyb2woYm9vbCBiRW5hYmxlKSA6IGJvb2wgIC8vICYjNDA2NTc7JiMyMzYzMTsmIzI1NTExOyYjMjEwNDY7PC90ZXh0PjxlbGxpcHNlIGN4PSIxOCIgY3k9Ijg0Mi41MzkxIiBmaWxsPSIjODRCRTg0IiByeD0iMyIgcnk9IjMiIHN0eWxlPSJzdHJva2U6IzAzODA0ODtzdHJva2Utd2lkdGg6MS4wOyIvPjx0ZXh0IGZpbGw9IiMwMDAwMDAiIGZvbnQtZmFtaWx5PSJzYW5zLXNlcmlmIiBmb250LXNpemU9IjE0IiBsZW5ndGhBZGp1c3Q9InNwYWNpbmciIHRleHRMZW5ndGg9IjIxMyIgeD0iMjciIHk9Ijg0Ni43ODEzIj5zZW5kQ21kcygpIDogYm9vbCAgLy8gJiMyMTQ1NzsmIzM2ODY1OyYjMjE2Mjk7JiMyMDE5Njs8L3RleHQ+PGVsbGlwc2UgY3g9IjE4IiBjeT0iODU3LjUyMzQiIGZpbGw9IiM4NEJFODQiIHJ4PSIzIiByeT0iMyIgc3R5bGU9InN0cm9rZTojMDM4MDQ4O3N0cm9rZS13aWR0aDoxLjA7Ii8+PHRleHQgZmlsbD0iIzAwMDAwMCIgZm9udC1mYW1pbHk9InNhbnMtc2VyaWYiIGZvbnQtc2l6ZT0iMTQiIGxlbmd0aEFkanVzdD0ic3BhY2luZyIgdGV4dExlbmd0aD0iMjA2IiB4PSIyNyIgeT0iODYxLjc2NTYiPnNlbmRDbWQoKSA6IGJvb2wgIC8vICYjMjE0NTc7JiMzNjg2NTsmIzIxNjI5OyYjMjAxOTY7PC90ZXh0PjxlbGxpcHNlIGN4PSIxOCIgY3k9Ijg3Mi41MDc4IiBmaWxsPSIjODRCRTg0IiByeD0iMyIgcnk9IjMiIHN0eWxlPSJzdHJva2U6IzAzODA0ODtzdHJva2Utd2lkdGg6MS4wOyIvPjx0ZXh0IGZpbGw9IiMwMDAwMDAiIGZvbnQtZmFtaWx5PSJzYW5zLXNlcmlmIiBmb250LXNpemU9IjE0IiBsZW5ndGhBZGp1c3Q9InNwYWNpbmciIHRleHRMZW5ndGg9IjQ2NCIgeD0iMjciIHk9Ijg3Ni43NSI+c2V0U2NyZWVuQ29udHJvbChjb25zdCBpbnQgc2NyZWVuQ3RybFR5cGUpIDogYm9vbCAgLy8gJiMzNTc3NDsmIzMyNjIyOyYjMjc5Nzk7JiMzNTc5NzsmIzMwMDExOyYjMzg3NTQ7PC90ZXh0PjxlbGxpcHNlIGN4PSIxOCIgY3k9Ijg4Ny40OTIyIiBmaWxsPSIjODRCRTg0IiByeD0iMyIgcnk9IjMiIHN0eWxlPSJzdHJva2U6IzAzODA0ODtzdHJva2Utd2lkdGg6MS4wOyIvPjx0ZXh0IGZpbGw9IiMwMDAwMDAiIGZvbnQtZmFtaWx5PSJzYW5zLXNlcmlmIiBmb250LXNpemU9IjE0IiBsZW5ndGhBZGp1c3Q9InNwYWNpbmciIHRleHRMZW5ndGg9IjU5MSIgeD0iMjciIHk9Ijg5MS43MzQ0Ij5nZXRTZW5zb3JJbmZvKGNvbnN0IHN0ZDo6c3RyaW5nJmFtcDsgYXR0ck5hbWUsIGludCAmYW1wO2F0dHJWYWx1ZSkgOiBib29sICAvLyAmIzMzNzE5OyYjMjE0NjI7JiMyMDI1NjsmIzI0ODYzOyYjMjIxMjA7JiMyMDQ0OTsmIzI0Njg3OzwvdGV4dD48L2c+PCEtLWNsYXNzIENQaHlzaWNTY3JlZW5EZWYtLT48ZyBpZD0iZWxlbV9DUGh5c2ljU2NyZWVuRGVmIj48cmVjdCBjb2RlTGluZT0iNTYiIGZpbGw9IiNGMUYxRjEiIGhlaWdodD0iMzE3LjcxODgiIGlkPSJDUGh5c2ljU2NyZWVuRGVmIiByeD0iMi41IiByeT0iMi41IiBzdHlsZT0ic3Ryb2tlOiMxODE4MTg7c3Ryb2tlLXdpZHRoOjAuNTsiIHdpZHRoPSI4OTciIHg9IjkzOSIgeT0iNDY3Ii8+PGVsbGlwc2UgY3g9IjEzMjcuMjUiIGN5PSI0ODMiIGZpbGw9IiNBREQxQjIiIHJ4PSIxMSIgcnk9IjExIiBzdHlsZT0ic3Ryb2tlOiMxODE4MTg7c3Ryb2tlLXdpZHRoOjEuMDsiLz48cGF0aCBkPSJNMTMyNC44NzUsNDg3LjI1IEwxMzI0Ljg3NSw0ODkgTDEzMjkuODEyNSw0ODkgTDEzMjkuODEyNSw0ODcuMjUgTDEzMjQuODc1LDQ4Ny4yNSBaIE0xMzI1LjU2MjUsNDg3LjkzNzUgUTEzMjUuNTYyNSw0ODcuOTM3NSAxMzI1LjU2MjUsNDc4Ljc1IEwxMzIzLjgxMjUsNDc4Ljc1IFExMzIzLjgxMjUsNDc4Ljc1IDEzMjMuODEyNSw0ODcuOTM3NSBMMTMyNS41NjI1LDQ4Ny45Mzc1IFogTTEzMjkuMTI1LDQ4Ny45Mzc1IEwxMzMwLjg3NSw0ODcuOTM3NSBRMTMzMC44NzUsNDg3LjkzNzUgMTMzMC44NzUsNDg1LjEyNSBMMTMyOS4xMjUsNDg1LjEyNSBRMTMyOS4xMjUsNDg1LjEyNSAxMzI5LjEyNSw0ODcuOTM3NSBaIE0xMzI5LjEyNSw0NzguNzUgUTEzMjkuMTI1LDQ3OC43NSAxMzI5LjEyNSw0ODEuNTYyNSBMMTMzMC44NzUsNDgxLjU2MjUgUTEzMzAuODc1LDQ4MS41NjI1IDEzMzAuODc1LDQ3OC43NSBMMTMyOS4xMjUsNDc4Ljc1IFogTTEzMjQuODc1LDQ3OS40Mzc1IEwxMzI5LjgxMjUsNDc5LjQzNzUgTDEzMjkuODEyNSw0NzcuNjg3NSBMMTMyNC44NzUsNDc3LjY4NzUgTDEzMjQuODc1LDQ3OS40Mzc1IFogIiBmaWxsPSIjMDAwMDAwIi8+PHRleHQgZmlsbD0iIzAwMDAwMCIgZm9udC1mYW1pbHk9InNhbnMtc2VyaWYiIGZvbnQtc2l6ZT0iMTQiIGxlbmd0aEFkanVzdD0ic3BhY2luZyIgdGV4dExlbmd0aD0iMTEyIiB4PSIxMzQ3Ljc1IiB5PSI0ODguNzQyMiI+Q1BoeXNpY1NjcmVlbkRlZjwvdGV4dD48bGluZSBzdHlsZT0ic3Ryb2tlOiMxODE4MTg7c3Ryb2tlLXdpZHRoOjAuNTsiIHgxPSI5NDAiIHgyPSIxODM1IiB5MT0iNDk5IiB5Mj0iNDk5Ii8+PGxpbmUgc3R5bGU9InN0cm9rZTojMTgxODE4O3N0cm9rZS13aWR0aDowLjU7IiB4MT0iOTQwIiB4Mj0iMTgzNSIgeTE9IjUwNyIgeTI9IjUwNyIvPjxlbGxpcHNlIGN4PSI5NTAiIGN5PSI1MTkuOTkyMiIgZmlsbD0iIzg0QkU4NCIgcng9IjMiIHJ5PSIzIiBzdHlsZT0ic3Ryb2tlOiMwMzgwNDg7c3Ryb2tlLXdpZHRoOjEuMDsiLz48dGV4dCBmaWxsPSIjMDAwMDAwIiBmb250LWZhbWlseT0ic2Fucy1zZXJpZiIgZm9udC1zaXplPSIxNCIgbGVuZ3RoQWRqdXN0PSJzcGFjaW5nIiB0ZXh0TGVuZ3RoPSI0MDgiIHg9Ijk1OSIgeT0iNTI0LjIzNDQiPmluc3RhbmNlKGludCB2aWRlb291dHB1dCkgOiBDUGh5c2ljU2NyZWVuRGVmKiAgLy8gJiMzMzcxOTsmIzIxNDYyOyYjMjM0NTQ7JiMyMDM2Mzs8L3RleHQ+PGVsbGlwc2UgY3g9Ijk1MCIgY3k9IjUzNC45NzY2IiBmaWxsPSIjODRCRTg0IiByeD0iMyIgcnk9IjMiIHN0eWxlPSJzdHJva2U6IzAzODA0ODtzdHJva2Utd2lkdGg6MS4wOyIvPjx0ZXh0IGZpbGw9IiMwMDAwMDAiIGZvbnQtZmFtaWx5PSJzYW5zLXNlcmlmIiBmb250LXNpemU9IjE0IiBsZW5ndGhBZGp1c3Q9InNwYWNpbmciIHRleHRMZW5ndGg9IjMyNCIgeD0iOTU5IiB5PSI1MzkuMjE4OCI+Q1BoeXNpY1NjcmVlbkRlZihpbnQgdmlkZW9vdXRwdXQpICAvLyAmIzI2NTAwOyYjMzY4OTY7JiMyMDk4OTsmIzI1OTY4OzwvdGV4dD48ZWxsaXBzZSBjeD0iOTUwIiBjeT0iNTQ5Ljk2MDkiIGZpbGw9IiM4NEJFODQiIHJ4PSIzIiByeT0iMyIgc3R5bGU9InN0cm9rZTojMDM4MDQ4O3N0cm9rZS13aWR0aDoxLjA7Ii8+PHRleHQgZmlsbD0iIzAwMDAwMCIgZm9udC1mYW1pbHk9InNhbnMtc2VyaWYiIGZvbnQtc2l6ZT0iMTQiIGxlbmd0aEFkanVzdD0ic3BhY2luZyIgdGV4dExlbmd0aD0iMjI2IiB4PSI5NTkiIHk9IjU1NC4yMDMxIj5+Q1BoeXNpY1NjcmVlbkRlZigpICAvLyAmIzI2NTEyOyYjMjY1MDA7JiMyMDk4OTsmIzI1OTY4OzwvdGV4dD48ZWxsaXBzZSBjeD0iOTUwIiBjeT0iNTY0Ljk0NTMiIGZpbGw9IiM4NEJFODQiIHJ4PSIzIiByeT0iMyIgc3R5bGU9InN0cm9rZTojMDM4MDQ4O3N0cm9rZS13aWR0aDoxLjA7Ii8+PHRleHQgZmlsbD0iIzAwMDAwMCIgZm9udC1mYW1pbHk9InNhbnMtc2VyaWYiIGZvbnQtc2l6ZT0iMTQiIGxlbmd0aEFkanVzdD0ic3BhY2luZyIgdGV4dExlbmd0aD0iMzI0IiB4PSI5NTkiIHk9IjU2OS4xODc1Ij5nZXRBZGRyKCkgOiBzdGQ6OnN0cmluZyAgLy8gJiMzMzcxOTsmIzIxNDYyOyYjMjQ0MDM7JiMyMTA2OTsmIzIzNjMxOyYjMjQxNDk7JiMzMDM0MDsmIzIyMzIwOyYjMjIzMzY7PC90ZXh0PjxlbGxpcHNlIGN4PSI5NTAiIGN5PSI1NzkuOTI5NyIgZmlsbD0iIzg0QkU4NCIgcng9IjMiIHJ5PSIzIiBzdHlsZT0ic3Ryb2tlOiMwMzgwNDg7c3Ryb2tlLXdpZHRoOjEuMDsiLz48dGV4dCBmaWxsPSIjMDAwMDAwIiBmb250LWZhbWlseT0ic2Fucy1zZXJpZiIgZm9udC1zaXplPSIxNCIgbGVuZ3RoQWRqdXN0PSJzcGFjaW5nIiB0ZXh0TGVuZ3RoPSI1MjIiIHg9Ijk1OSIgeT0iNTg0LjE3MTkiPmluaXRDb250cm9sUGFybXMoY29uc3QgSnNvbjo6VmFsdWUgJmFtcDthdHRyaWJ1dGUpIDogdm9pZCAgLy8gJiMyNjM1NjsmIzI2MDMyOyYjMjM2MzE7JiMyNDE0OTsmIzI1NTExOyYjMjEwNDY7JiMyMDQ0OTsmIzI0Njg3OzwvdGV4dD48ZWxsaXBzZSBjeD0iOTUwIiBjeT0iNTk0LjkxNDEiIGZpbGw9IiM4NEJFODQiIHJ4PSIzIiByeT0iMyIgc3R5bGU9InN0cm9rZTojMDM4MDQ4O3N0cm9rZS13aWR0aDoxLjA7Ii8+PHRleHQgZmlsbD0iIzAwMDAwMCIgZm9udC1mYW1pbHk9InNhbnMtc2VyaWYiIGZvbnQtc2l6ZT0iMTQiIGxlbmd0aEFkanVzdD0ic3BhY2luZyIgdGV4dExlbmd0aD0iNTAxIiB4PSI5NTkiIHk9IjU5OS4xNTYzIj5pbml0UG93ZXJTY2hlZHVsZShjb25zdCBKc29uOjpWYWx1ZSBzY2hlZHVsZSkgOiB2b2lkICAvLyAmIzM1Nzc0OyYjMzI2MjI7JiMyNDMyMDsmIzIwODUxOyYjMjY0MjY7JiMzNTc0NTsmIzIxMDEwOzwvdGV4dD48ZWxsaXBzZSBjeD0iOTUwIiBjeT0iNjA5Ljg5ODQiIGZpbGw9IiM4NEJFODQiIHJ4PSIzIiByeT0iMyIgc3R5bGU9InN0cm9rZTojMDM4MDQ4O3N0cm9rZS13aWR0aDoxLjA7Ii8+PHRleHQgZmlsbD0iIzAwMDAwMCIgZm9udC1mYW1pbHk9InNhbnMtc2VyaWYiIGZvbnQtc2l6ZT0iMTQiIGxlbmd0aEFkanVzdD0ic3BhY2luZyIgdGV4dExlbmd0aD0iMzQ2IiB4PSI5NTkiIHk9IjYxNC4xNDA2Ij5nZXRQb3dlclNjaGVkdWxlKCkgOiBpbnQgIC8vICYjMjY4MTY7JiMyNjU5NzsmIzI0MTgyOyYjMjUxOTE7JiMzNDg5MjsmIzI0MzIwOyYjMjA4NTE7JiMyNjQyNjsmIzM1NzQ1OyYjMjEwMTA7PC90ZXh0PjxlbGxpcHNlIGN4PSI5NTAiIGN5PSI2MjQuODgyOCIgZmlsbD0iIzg0QkU4NCIgcng9IjMiIHJ5PSIzIiBzdHlsZT0ic3Ryb2tlOiMwMzgwNDg7c3Ryb2tlLXdpZHRoOjEuMDsiLz48dGV4dCBmaWxsPSIjMDAwMDAwIiBmb250LWZhbWlseT0ic2Fucy1zZXJpZiIgZm9udC1zaXplPSIxNCIgbGVuZ3RoQWRqdXN0PSJzcGFjaW5nIiB0ZXh0TGVuZ3RoPSIyOTciIHg9Ijk1OSIgeT0iNjI5LjEyNSI+cG93ZXJDdHJsKGJvb2wgb25fb2ZmKSA6IGJvb2wgIC8vICYjMjM2MzE7JiMyNDE0OTsmIzI0MzIwOyYjMjA4NTE7PC90ZXh0PjxlbGxpcHNlIGN4PSI5NTAiIGN5PSI2MzkuODY3MiIgZmlsbD0iIzg0QkU4NCIgcng9IjMiIHJ5PSIzIiBzdHlsZT0ic3Ryb2tlOiMwMzgwNDg7c3Ryb2tlLXdpZHRoOjEuMDsiLz48dGV4dCBmaWxsPSIjMDAwMDAwIiBmb250LWZhbWlseT0ic2Fucy1zZXJpZiIgZm9udC1zaXplPSIxNCIgbGVuZ3RoQWRqdXN0PSJzcGFjaW5nIiB0ZXh0TGVuZ3RoPSIyNTQiIHg9Ijk1OSIgeT0iNjQ0LjEwOTQiPmF1dG9BZGp1c3QoKSA6IGJvb2wgIC8vICYjMjM2MzE7JiMyNDE0OTsmIzMzMjU4OyYjMjExNjA7JiMyNjY1NzsmIzI3NDkxOzwvdGV4dD48ZWxsaXBzZSBjeD0iOTUwIiBjeT0iNjU0Ljg1MTYiIGZpbGw9IiM4NEJFODQiIHJ4PSIzIiByeT0iMyIgc3R5bGU9InN0cm9rZTojMDM4MDQ4O3N0cm9rZS13aWR0aDoxLjA7Ii8+PHRleHQgZmlsbD0iIzAwMDAwMCIgZm9udC1mYW1pbHk9InNhbnMtc2VyaWYiIGZvbnQtc2l6ZT0iMTQiIGxlbmd0aEFkanVzdD0ic3BhY2luZyIgdGV4dExlbmd0aD0iMzgxIiB4PSI5NTkiIHk9IjY1OS4wOTM4Ij5zZXRCYWNrTGlnaHQoaW50IG1vZGUpIDogYm9vbCAgLy8gJiMzNTc3NDsmIzMyNjIyOyYjMjM2MzE7JiMyNDE0OTsmIzMyOTcyOyYjMjA4MDk7JiMyNzE2OTsmIzI0MzM1OyYjMjU1MDk7JiMyMTQ3NTs8L3RleHQ+PGVsbGlwc2UgY3g9Ijk1MCIgY3k9IjY2OS44MzU5IiBmaWxsPSIjODRCRTg0IiByeD0iMyIgcnk9IjMiIHN0eWxlPSJzdHJva2U6IzAzODA0ODtzdHJva2Utd2lkdGg6MS4wOyIvPjx0ZXh0IGZpbGw9IiMwMDAwMDAiIGZvbnQtZmFtaWx5PSJzYW5zLXNlcmlmIiBmb250LXNpemU9IjE0IiBsZW5ndGhBZGp1c3Q9InNwYWNpbmciIHRleHRMZW5ndGg9Ijg3MSIgeD0iOTU5IiB5PSI2NzQuMDc4MSI+c2V0QXR0cmlidXRlKGNvbnN0IHN0ZDo6c3RyaW5nJmFtcDsgdHlwZSwgY29uc3Qgc3RkOjpzdHJpbmcmYW1wOyBhdHRyTmFtZSwgaW50IGN1cnJlbnRWYWx1ZSwgaW50IG9wdGlvbikgOiBib29sICAvLyAmIzM1Nzc0OyYjMzI2MjI7JiMyMzYzMTsmIzI0MTQ5OyYjMjM2NDY7JiMyNDYxNTsmIzI1NTA5OyYjMjE0NzU7PC90ZXh0PjxlbGxpcHNlIGN4PSI5NTAiIGN5PSI2ODQuODIwMyIgZmlsbD0iIzg0QkU4NCIgcng9IjMiIHJ5PSIzIiBzdHlsZT0ic3Ryb2tlOiMwMzgwNDg7c3Ryb2tlLXdpZHRoOjEuMDsiLz48dGV4dCBmaWxsPSIjMDAwMDAwIiBmb250LWZhbWlseT0ic2Fucy1zZXJpZiIgZm9udC1zaXplPSIxNCIgbGVuZ3RoQWRqdXN0PSJzcGFjaW5nIiB0ZXh0TGVuZ3RoPSIzODgiIHg9Ijk1OSIgeT0iNjg5LjA2MjUiPmdldEF0dHJpYnV0ZUNhcHMoKSA6IEpzb246OlZhbHVlICAvLyAmIzMzNzE5OyYjMjE0NjI7JiMyMzYzMTsmIzI0MTQ5OyYjMzU4NDM7JiMzMzQxMDsmIzMzMDIxOyYjMjExNDc7JiMzODU5ODs8L3RleHQ+PGVsbGlwc2UgY3g9Ijk1MCIgY3k9IjY5OS44MDQ3IiBmaWxsPSIjODRCRTg0IiByeD0iMyIgcnk9IjMiIHN0eWxlPSJzdHJva2U6IzAzODA0ODtzdHJva2Utd2lkdGg6MS4wOyIvPjx0ZXh0IGZpbGw9IiMwMDAwMDAiIGZvbnQtZmFtaWx5PSJzYW5zLXNlcmlmIiBmb250LXNpemU9IjE0IiBsZW5ndGhBZGp1c3Q9InNwYWNpbmciIHRleHRMZW5ndGg9IjQ4NiIgeD0iOTU5IiB5PSI3MDQuMDQ2OSI+c3dpdGNoSW5wdXRTb3VyY2Uoc3RkOjpzdHJpbmcgZGV2aWNlSUQpIDogYm9vbCAgLy8gJiMyMDk5OTsmIzI1NDQyOyYjMjM2MzE7JiMyNDE0OTsmIzMwMzQwOyYjMzY3NTU7JiMyMDgzNzsmIzIwNDQ5OyYjMjE0OTU7PC90ZXh0PjxlbGxpcHNlIGN4PSI5NTAiIGN5PSI3MTQuNzg5MSIgZmlsbD0iIzg0QkU4NCIgcng9IjMiIHJ5PSIzIiBzdHlsZT0ic3Ryb2tlOiMwMzgwNDg7c3Ryb2tlLXdpZHRoOjEuMDsiLz48dGV4dCBmaWxsPSIjMDAwMDAwIiBmb250LWZhbWlseT0ic2Fucy1zZXJpZiIgZm9udC1zaXplPSIxNCIgbGVuZ3RoQWRqdXN0PSJzcGFjaW5nIiB0ZXh0TGVuZ3RoPSI1NTYiIHg9Ijk1OSIgeT0iNzE5LjAzMTMiPm1hcEFuYWxvZ091dChzdGQ6OnN0cmluZyBkZXZpY2VJRCkgOiBpbnQgIC8vICYjMzM3MTk7JiMyMTQ2MjsmIzIxMDQwOyYjMzY4MjU7JiMyMDAxMDsmIzIzNjMxOyYjMjQxNDk7JiMyMzU0NTsmIzI0MjEyOyYjMzAzNDA7JiMyNzE2OTsmIzI1MzExOyYjMzA2OTc7JiMzODQ1MzsmIzMwMzQwOyYjMzY3NTU7JiMyMDk4Njs8L3RleHQ+PGVsbGlwc2UgY3g9Ijk1MCIgY3k9IjcyOS43NzM0IiBmaWxsPSIjODRCRTg0IiByeD0iMyIgcnk9IjMiIHN0eWxlPSJzdHJva2U6IzAzODA0ODtzdHJva2Utd2lkdGg6MS4wOyIvPjx0ZXh0IGZpbGw9IiMwMDAwMDAiIGZvbnQtZmFtaWx5PSJzYW5zLXNlcmlmIiBmb250LXNpemU9IjE0IiBsZW5ndGhBZGp1c3Q9InNwYWNpbmciIHRleHRMZW5ndGg9IjIxMyIgeD0iOTU5IiB5PSI3MzQuMDE1NiI+ZHVtcCgpIDogdm9pZCAgLy8gJiMzNTc3NDsmIzMyNjIyOyYjMjc5Nzk7JiMzNTc5NzsmIzMwMDExOyYjMzg3NTQ7PC90ZXh0PjxlbGxpcHNlIGN4PSI5NTAiIGN5PSI3NDQuNzU3OCIgZmlsbD0iIzg0QkU4NCIgcng9IjMiIHJ5PSIzIiBzdHlsZT0ic3Ryb2tlOiMwMzgwNDg7c3Ryb2tlLXdpZHRoOjEuMDsiLz48dGV4dCBmaWxsPSIjMDAwMDAwIiBmb250LWZhbWlseT0ic2Fucy1zZXJpZiIgZm9udC1zaXplPSIxNCIgbGVuZ3RoQWRqdXN0PSJzcGFjaW5nIiB0ZXh0TGVuZ3RoPSIzNjYiIHg9Ijk1OSIgeT0iNzQ5Ij5ibGFja1NjcmVlbkNvbnRyb2woYm9vbCBiRW5hYmxlKSA6IGJvb2wgIC8vICYjNDA2NTc7JiMyMzYzMTsmIzI1NTExOyYjMjEwNDY7PC90ZXh0PjxlbGxpcHNlIGN4PSI5NTAiIGN5PSI3NTkuNzQyMiIgZmlsbD0iIzg0QkU4NCIgcng9IjMiIHJ5PSIzIiBzdHlsZT0ic3Ryb2tlOiMwMzgwNDg7c3Ryb2tlLXdpZHRoOjEuMDsiLz48dGV4dCBmaWxsPSIjMDAwMDAwIiBmb250LWZhbWlseT0ic2Fucy1zZXJpZiIgZm9udC1zaXplPSIxNCIgbGVuZ3RoQWRqdXN0PSJzcGFjaW5nIiB0ZXh0TGVuZ3RoPSI0NjQiIHg9Ijk1OSIgeT0iNzYzLjk4NDQiPnNldFNjcmVlbkNvbnRyb2woY29uc3QgaW50IHNjcmVlbkN0cmxUeXBlKSA6IGJvb2wgIC8vICYjMzU3NzQ7JiMzMjYyMjsmIzI3OTc5OyYjMzU3OTc7JiMzMDAxMTsmIzM4NzU0OzwvdGV4dD48ZWxsaXBzZSBjeD0iOTUwIiBjeT0iNzc0LjcyNjYiIGZpbGw9IiM4NEJFODQiIHJ4PSIzIiByeT0iMyIgc3R5bGU9InN0cm9rZTojMDM4MDQ4O3N0cm9rZS13aWR0aDoxLjA7Ii8+PHRleHQgZmlsbD0iIzAwMDAwMCIgZm9udC1mYW1pbHk9InNhbnMtc2VyaWYiIGZvbnQtc2l6ZT0iMTQiIGxlbmd0aEFkanVzdD0ic3BhY2luZyIgdGV4dExlbmd0aD0iNTkxIiB4PSI5NTkiIHk9Ijc3OC45Njg4Ij5nZXRTZW5zb3JJbmZvKGNvbnN0IHN0ZDo6c3RyaW5nJmFtcDsgYXR0ck5hbWUsIGludCAmYW1wO2F0dHJWYWx1ZSkgOiBib29sICAvLyAmIzMzNzE5OyYjMjE0NjI7JiMyMDI1NjsmIzI0ODYzOyYjMjIxMjA7JiMyMDQ0OTsmIzI0Njg3OzwvdGV4dD48L2c+PCEtLXJldmVyc2UgbGluayBJUGh5c2ljU2NyZWVuIHRvIENQaHlzaWNTY3JlZW4tLT48ZyBpZD0ibGlua19JUGh5c2ljU2NyZWVuX0NQaHlzaWNTY3JlZW4iPjxwYXRoIGNvZGVMaW5lPSI3NyIgZD0iTTc2Ny43ODYxLDMwOC4wMjEyIEM3NDguODk2MSwzMjcuMTkxMiA3NDEuNjksMzM0LjUxIDcyMS41MSwzNTUgIiBmaWxsPSJub25lIiBpZD0iSVBoeXNpY1NjcmVlbi1iYWNrdG8tQ1BoeXNpY1NjcmVlbiIgc3R5bGU9InN0cm9rZTojMTgxODE4O3N0cm9rZS13aWR0aDoxLjA7Ii8+PHBvbHlnb24gZmlsbD0ibm9uZSIgcG9pbnRzPSI3ODAuNDIsMjk1LjIsNzYzLjUxMjMsMzAzLjgwOTksNzcyLjA1OTgsMzEyLjIzMjUsNzgwLjQyLDI5NS4yIiBzdHlsZT0ic3Ryb2tlOiMxODE4MTg7c3Ryb2tlLXdpZHRoOjEuMDsiLz48L2c+PCEtLXJldmVyc2UgbGluayBJUGh5c2ljU2NyZWVuIHRvIENQaHlzaWNTY3JlZW5EZWYtLT48ZyBpZD0ibGlua19JUGh5c2ljU2NyZWVuX0NQaHlzaWNTY3JlZW5EZWYiPjxwYXRoIGNvZGVMaW5lPSI3OCIgZD0iTTEwNzUuMjEyOCwzMDguMDIyNCBDMTEyOC41MjI4LDM2Mi4xMzI0IDExNzYuODQsNDExLjE4IDEyMzEuNDUsNDY2LjYgIiBmaWxsPSJub25lIiBpZD0iSVBoeXNpY1NjcmVlbi1iYWNrdG8tQ1BoeXNpY1NjcmVlbkRlZiIgc3R5bGU9InN0cm9rZTojMTgxODE4O3N0cm9rZS13aWR0aDoxLjA7Ii8+PHBvbHlnb24gZmlsbD0ibm9uZSIgcG9pbnRzPSIxMDYyLjU4LDI5NS4yLDEwNzAuOTM4NywzMTIuMjMzMywxMDc5LjQ4NjksMzAzLjgxMTQsMTA2Mi41OCwyOTUuMiIgc3R5bGU9InN0cm9rZTojMTgxODE4O3N0cm9rZS13aWR0aDoxLjA7Ii8+PC9nPjwhLS1TUkM9W3hMWFJKbmo3Njd0ZEwtbkp2NXZHdGdzZWFrREtBYkxmaDhCUUh4SlU3VW5qVHNUTWt4RkdnMVVQT1oyTlc0Qzg5NDJ1YzgyV2dNZVNESTdiT2w5ZEZFRnJseVpDcGpaVWZPajhNd2JJTEZEYXB2dnB2aGxEeUlvUWdSZ2tDZjM5dHRDRFJLWHAwODNBM3RxQS1fajhDUTJCTFFZMVgwNm5DY1JlMDI0RnNueC1HNGI2Nkh5Z29pc1JZaF91Y2ZITklOTWhTSjRsNU44MGZ0SlRJTjI2WV9MYXFpTUUwTkRYVTdzUHAyd0c1c0xvaWo5U0J2QWREUjlQd0VubHUzSTJzNDVjSGRLaUR3NFg1Zjdva09qV0NsY3JRZGYwa1E1WWZmWnJDRTFSWjI1MzN4SmZuYWt3TVhFZ1RGNjBwMW10dGJKZW41NThFOEY2V0pFYXZPN2tjSTE2c1BNRjhoZi16UTlQaHZCcDBmZHdXcHV6elFpTENsRW1jc2pLYXBEdnZPQTBkWE5lelp1dkVRUXAxdHhiVmhvMnBVYmZ4OVk5QjRBY1drMDg2WHRiQWk1TkJZQ280Y245S1pzQ0tsZ3RkZWlKQ0wyX3o5cEM3VEFUMmx0emNJSXUwRHpNalUtIC1DNzl2NzdKTUdaZzhLNk1NR2Mzb0ZmY1FmT1NMU2J3Y1lfa2E3OTk5ak1pbG9uVmd5MHE1dHhGMW5xaEMwenduQnJNQkZVSVJRdnhaMDhZM2NlaUxQNkMzbUlpMzhZLXNRRTRXNGFlazU0ZlFqVHNXNEU1VVhpUEQ5NU1SekVULXlJVmhQNndaako3VHBjWlNtNWYtMEI4OTdxQVVtLU8tRkI4dzYzQ3FDNzBkTWtJUDRidE94S29sVng1Q2ZsUlBnOTdvUW9iZ2dOT0FnWVJBdFZObWJOaGpBUDRucGpKeURza0RGdl9CWDh6RW9FYVpmaXdRR0VVdGN6a19qZnd5YWZrTEprS3NNUEVyTDFuNlVNQjQzNktfWE1oTVpCUXRUUlI0YkNNbmE3SlRpLW40cEFKSkxfRi1xS2hwcUxiaFN4VlJ6LVctZWlLeTFMVWlpbTRVUGlzRndNMkM3RWxUNDgwa1NXUldBNGZTRW94MVVHLVE2ZktGMmpTdXR3NzVSUjlzQTBfeEp0cnpNYzFsd0xYeFl3cC1yVUUyT3hqTFIxTHNJQWJFTHNnSXpORUtyaU96T0QwOGhjVHpGVWxoTVR6X083cl9teGwtZktrdzBFZmZJdFNsSkxqdmdMTU84NGxybmpiVTVGV0VrRlY2SV9hRV9PZXJhZDRHSFhlb0ZyRVhSV0E3NEtLNmJ6UjVaUDBpYkZyZ2JVbUxjbS1jY0xIN0hDa2g0MDhwckZ2TU9ScXJpVG01WUFFSEdHdUVXT0hYRGR5eFFpeV9YeDlYcVdtbWdEZUNvQ2U4V09QNy0zVFBBUjlOZWF6c0lBdE84VFhDcjgwdy0zd2FCM0lSQnRWOS1LZTdnM0J4Wlo3bGE0eTdTWkJuRTZJR1ZiVUZiUGk3VU5UbVMyR3JGRm9MejJmLWZaa09oOGR1WDBlUlBNMk1vVXQ4S2kzUFYxbW9KdjdKVUQyQnpCMVhpR3kxZ0JmRTduejdnaXY2THFKOUx3dzE5OURaaDlCOGtITEF3WEYxMllRdXhIc0k1UFR6VHo4MzRCQWlSbm0zV3E1Y0xScHNRVjUxVGZ5eG5fSFF1X0dYTlRybGJTZk5fN1JWMFFGbHo3UG9jTkpiMnlmYnUzLXkxZDFjeG9SR2ttZHFSV0JfYnZsMC1fR0k1RnRscGdxVi1fa1psZFNqV0RkUk1tMDBdLS0+PC9nPjwvc3ZnPg==;" vertex="1" parent="WIyWlLk6GJQsqaUBKTNV-1">
            <mxGeometry x="-510" y="30" width="1843" height="904" as="geometry" />
          </mxCell>
        </UserObject>
        <UserObject label="" plantUmlData="{&#xa;  &quot;data&quot;: &quot;@startuml\n\nclass CScreenManager {\n    + CScreenManager()  // 构造函数\n    + ~CScreenManager()  // 析构函数\n    + start()  // 开始\n    + getCaps(Json::Value&amp; response)  // 获取屏幕能力\n    + getScreenControlParams(const std::string &amp;compositeID, Json::Value &amp;parms)  // 获取屏幕控制参数\n    + setScreenControlParams(const std::string &amp;compositeID, const Json::Value &amp;parms)  // 设置屏幕控制参数\n    + getAttributeCaps(std::string compositeID, int output)  // 获取属性能力\n    + ctrlAutoBrightTimer(bool bFlag)  // 控制自动亮度定时器\n    + powerCtrl(const std::string &amp;compositeID, int output, bool on_false)  // 控制电源\n    + setAttribute(const std::string &amp;compositeID, int output, std::string type, std::string attrName, int currentValue, int Option)  // 设置属性\n    + getAttribute(const std::string &amp;compositeID, int output, std::string  type, Json::Value&amp; attribute)  // 获取属性\n    + autoAdjust(const std::string&amp; compositeID, int output)  // 自动调整\n    + setBackLight(const std::string&amp; compositeID, int output, int mode)  // 设置背光\n    + blackScreenControl(const std::string &amp;compositeID, int output, bool bEnable)  // 控制黑屏\n    + setPowerSchedule(const std::string &amp;compositeID, const Json::Value &amp;parms)  // 设置电源计划\n    + getPowerSchedule(const std::string &amp;compositeID, Json::Value &amp;parms)  // 获取电源计划\n    + switchInputSource(const std::string &amp;compositeID, std::string deviceID, std::vector&lt;int&gt; videoOutputs)  // 切换输入源\n    + setSingleDisplay(const std::string &amp;compositeID, std::vector&lt;int&gt; videoOutputs)  // 设置单个显示\n    + mapAnalogOut(const std::string &amp;compositeID, std::string deviceID, std::vector&lt;int&gt; m60Outputs)  // 映射模拟输出\n    + getProtocol(const std::string compositeID)  // 获取协议\n    + getProtIndex(const std::string compositeID)  // 获取协议索引\n    + dumpSchedule()  // 转储计划\n    + processOldConfig()  // 处理旧配置\n    + setDefaultConfig()  // 设置默认配置\n    + setScreenControl(const std::string&amp; compositeID, int output, int screenCtrlType)  // 设置屏幕控制\n    - onTimer()  // 定时器事件\n    - getTimerCtrlFlag(const int attrValue)  // 获取定时器控制标志\n    - onCaptureBrightnessTimer()  // 亮度捕获定时器事件\n    - onCheckNeedAdjustTimer()  // 检查是否需要调整定时器事件\n    - calculateBrightness(const int attrValue)  // 计算亮度\n    - autoAdjustTask(unsigned long param)  // 自动调整任务\n    - powerCtrlTask(unsigned long param)  // 电源控制任务\n    - setAttributeTask(unsigned long param)  // 设置属性任务\n    - setBackLightTask(unsigned long param)  // 设置背光任务\n    - getchannel(std::string compositeID, int output, std::vector&lt;int&gt;&amp; outputsList)  // 获取通道\n    - getchannel(std::string compositeID, int output)  // 获取通道\n    - isCompositeIDInvalid(const std::string compositeID)  // 检查CompositeID是否有效\n    - onScreenCtrlTableConfig(const Json::Value &amp;ScreenCtrlTable)  // 屏幕控制表配置事件\n    - onPowerOptionConfig(const Json::Value &amp;screenPowerOption)  // 电源选项配置事件\n    - getPowerOption(std::string compositeID, int&amp; count,  int&amp; screenInter )  // 获取电源选项\n    - m_power: CTimer  // 电源定时器\n    - m_autoBrightTimerManager: CTimer  // 自动亮度定时器管理器\n    - enum TimerCtrl\n    - m_power: CTimer  // 电源定时器\n    - m_autoBrightTimerManager: CTimer  // 自动亮度定时器管理器\n    - enum TimerCtrlFlag  // 定时器控制标志\n}\n\nclass SCREEN_TASK {\n    - operate: OPERATE_TYPE  // 操作类型\n    - compositeID: std::string  // 组合ID\n    - output: int  // 输出\n    - on_false: bool  // 假\n    - type: std::string  // 类型\n    - attrName: std::string  // 属性名称\n    - currentValue: int  // 当前值\n    - Option: int  // 选项\n    - mode: int  // 模式\n}\n\nclass CTimer {\n    + start()  // 开始\n    + stop()  // 停止\n}\n\n@enduml&quot;,&#xa;  &quot;format&quot;: &quot;svg&quot;&#xa;}" id="J0IwMMobx1PNj9GfN-dM-3">
          <mxCell style="shape=image;noLabel=1;verticalAlign=top;aspect=fixed;imageAspect=0;image=data:image/svg+xml,PD94bWwgdmVyc2lvbj0iMS4wIiBlbmNvZGluZz0idXMtYXNjaWkiIHN0YW5kYWxvbmU9Im5vIj8+PHN2ZyB4bWxucz0iaHR0cDovL3d3dy53My5vcmcvMjAwMC9zdmciIHhtbG5zOnhsaW5rPSJodHRwOi8vd3d3LnczLm9yZy8xOTk5L3hsaW5rIiBjb250ZW50U3R5bGVUeXBlPSJ0ZXh0L2NzcyIgaGVpZ2h0PSI4ODhweCIgcHJlc2VydmVBc3BlY3RSYXRpbz0ibm9uZSIgc3R5bGU9IndpZHRoOjEzMjRweDtoZWlnaHQ6ODg4cHg7YmFja2dyb3VuZDojRkZGRkZGOyIgdmVyc2lvbj0iMS4xIiB2aWV3Qm94PSIwIDAgMTMyNCA4ODgiIHdpZHRoPSIxMzI0cHgiIHpvb21BbmRQYW49Im1hZ25pZnkiPjxkZWZzLz48Zz48IS0tY2xhc3MgQ1NjcmVlbk1hbmFnZXItLT48ZyBpZD0iZWxlbV9DU2NyZWVuTWFuYWdlciI+PHJlY3QgY29kZUxpbmU9IjEiIGZpbGw9IiNGMUYxRjEiIGhlaWdodD0iNzM3LjI4MTMiIGlkPSJDU2NyZWVuTWFuYWdlciIgcng9IjIuNSIgcnk9IjIuNSIgc3R5bGU9InN0cm9rZTojMTgxODE4O3N0cm9rZS13aWR0aDowLjU7IiB3aWR0aD0iMTAwMyIgeD0iNyIgeT0iNyIvPjxlbGxpcHNlIGN4PSI0NTUuMjUiIGN5PSIyMyIgZmlsbD0iI0FERDFCMiIgcng9IjExIiByeT0iMTEiIHN0eWxlPSJzdHJva2U6IzE4MTgxODtzdHJva2Utd2lkdGg6MS4wOyIvPjxwYXRoIGQ9Ik00NTIuODc1LDI3LjI1IEw0NTIuODc1LDI5IEw0NTcuODEyNSwyOSBMNDU3LjgxMjUsMjcuMjUgTDQ1Mi44NzUsMjcuMjUgWiBNNDUzLjU2MjUsMjcuOTM3NSBRNDUzLjU2MjUsMjcuOTM3NSA0NTMuNTYyNSwxOC43NSBMNDUxLjgxMjUsMTguNzUgUTQ1MS44MTI1LDE4Ljc1IDQ1MS44MTI1LDI3LjkzNzUgTDQ1My41NjI1LDI3LjkzNzUgWiBNNDU3LjEyNSwyNy45Mzc1IEw0NTguODc1LDI3LjkzNzUgUTQ1OC44NzUsMjcuOTM3NSA0NTguODc1LDI1LjEyNSBMNDU3LjEyNSwyNS4xMjUgUTQ1Ny4xMjUsMjUuMTI1IDQ1Ny4xMjUsMjcuOTM3NSBaIE00NTcuMTI1LDE4Ljc1IFE0NTcuMTI1LDE4Ljc1IDQ1Ny4xMjUsMjEuNTYyNSBMNDU4Ljg3NSwyMS41NjI1IFE0NTguODc1LDIxLjU2MjUgNDU4Ljg3NSwxOC43NSBMNDU3LjEyNSwxOC43NSBaIE00NTIuODc1LDE5LjQzNzUgTDQ1Ny44MTI1LDE5LjQzNzUgTDQ1Ny44MTI1LDE3LjY4NzUgTDQ1Mi44NzUsMTcuNjg3NSBMNDUyLjg3NSwxOS40Mzc1IFogIiBmaWxsPSIjMDAwMDAwIi8+PHRleHQgZmlsbD0iIzAwMDAwMCIgZm9udC1mYW1pbHk9InNhbnMtc2VyaWYiIGZvbnQtc2l6ZT0iMTQiIGxlbmd0aEFkanVzdD0ic3BhY2luZyIgdGV4dExlbmd0aD0iOTgiIHg9IjQ3NS43NSIgeT0iMjguNzQyMiI+Q1NjcmVlbk1hbmFnZXI8L3RleHQ+PGxpbmUgc3R5bGU9InN0cm9rZTojMTgxODE4O3N0cm9rZS13aWR0aDowLjU7IiB4MT0iOCIgeDI9IjEwMDkiIHkxPSIzOSIgeTI9IjM5Ii8+PHJlY3QgZmlsbD0ibm9uZSIgaGVpZ2h0PSI2IiBzdHlsZT0ic3Ryb2tlOiNDODI5MzA7c3Ryb2tlLXdpZHRoOjEuMDsiIHdpZHRoPSI2IiB4PSIxNSIgeT0iNDguOTkyMiIvPjx0ZXh0IGZpbGw9IiMwMDAwMDAiIGZvbnQtZmFtaWx5PSJzYW5zLXNlcmlmIiBmb250LXNpemU9IjE0IiBsZW5ndGhBZGp1c3Q9InNwYWNpbmciIHRleHRMZW5ndGg9IjIxMyIgeD0iMjciIHk9IjU2LjIzNDQiPm1fcG93ZXI6IENUaW1lciAgLy8gJiMzMDAwNTsmIzI4MzA0OyYjMjM0NTA7JiMyNjEwMjsmIzIyMTIwOzwvdGV4dD48cmVjdCBmaWxsPSJub25lIiBoZWlnaHQ9IjYiIHN0eWxlPSJzdHJva2U6I0M4MjkzMDtzdHJva2Utd2lkdGg6MS4wOyIgd2lkdGg9IjYiIHg9IjE1IiB5PSI2My45NzY2Ii8+PHRleHQgZmlsbD0iIzAwMDAwMCIgZm9udC1mYW1pbHk9InNhbnMtc2VyaWYiIGZvbnQtc2l6ZT0iMTQiIGxlbmd0aEFkanVzdD0ic3BhY2luZyIgdGV4dExlbmd0aD0iNDAyIiB4PSIyNyIgeT0iNzEuMjE4OCI+bV9hdXRvQnJpZ2h0VGltZXJNYW5hZ2VyOiBDVGltZXIgIC8vICYjMzMyNTg7JiMyMTE2MDsmIzIwMTQyOyYjMjQyMzA7JiMyMzQ1MDsmIzI2MTAyOyYjMjIxMjA7JiMzMTY0OTsmIzI5NzAyOyYjMjIxMjA7PC90ZXh0PjxyZWN0IGZpbGw9Im5vbmUiIGhlaWdodD0iNiIgc3R5bGU9InN0cm9rZTojQzgyOTMwO3N0cm9rZS13aWR0aDoxLjA7IiB3aWR0aD0iNiIgeD0iMTUiIHk9Ijc4Ljk2MDkiLz48dGV4dCBmaWxsPSIjMDAwMDAwIiBmb250LWZhbWlseT0ic2Fucy1zZXJpZiIgZm9udC1zaXplPSIxNCIgbGVuZ3RoQWRqdXN0PSJzcGFjaW5nIiB0ZXh0TGVuZ3RoPSIxMDAiIHg9IjI3IiB5PSI4Ni4yMDMxIj5lbnVtIFRpbWVyQ3RybDwvdGV4dD48cmVjdCBmaWxsPSJub25lIiBoZWlnaHQ9IjYiIHN0eWxlPSJzdHJva2U6I0M4MjkzMDtzdHJva2Utd2lkdGg6MS4wOyIgd2lkdGg9IjYiIHg9IjE1IiB5PSI5My45NDUzIi8+PHRleHQgZmlsbD0iIzAwMDAwMCIgZm9udC1mYW1pbHk9InNhbnMtc2VyaWYiIGZvbnQtc2l6ZT0iMTQiIGxlbmd0aEFkanVzdD0ic3BhY2luZyIgdGV4dExlbmd0aD0iMjEzIiB4PSIyNyIgeT0iMTAxLjE4NzUiPm1fcG93ZXI6IENUaW1lciAgLy8gJiMzMDAwNTsmIzI4MzA0OyYjMjM0NTA7JiMyNjEwMjsmIzIyMTIwOzwvdGV4dD48cmVjdCBmaWxsPSJub25lIiBoZWlnaHQ9IjYiIHN0eWxlPSJzdHJva2U6I0M4MjkzMDtzdHJva2Utd2lkdGg6MS4wOyIgd2lkdGg9IjYiIHg9IjE1IiB5PSIxMDguOTI5NyIvPjx0ZXh0IGZpbGw9IiMwMDAwMDAiIGZvbnQtZmFtaWx5PSJzYW5zLXNlcmlmIiBmb250LXNpemU9IjE0IiBsZW5ndGhBZGp1c3Q9InNwYWNpbmciIHRleHRMZW5ndGg9IjQwMiIgeD0iMjciIHk9IjExNi4xNzE5Ij5tX2F1dG9CcmlnaHRUaW1lck1hbmFnZXI6IENUaW1lciAgLy8gJiMzMzI1ODsmIzIxMTYwOyYjMjAxNDI7JiMyNDIzMDsmIzIzNDUwOyYjMjYxMDI7JiMyMjEyMDsmIzMxNjQ5OyYjMjk3MDI7JiMyMjEyMDs8L3RleHQ+PHJlY3QgZmlsbD0ibm9uZSIgaGVpZ2h0PSI2IiBzdHlsZT0ic3Ryb2tlOiNDODI5MzA7c3Ryb2tlLXdpZHRoOjEuMDsiIHdpZHRoPSI2IiB4PSIxNSIgeT0iMTIzLjkxNDEiLz48dGV4dCBmaWxsPSIjMDAwMDAwIiBmb250LWZhbWlseT0ic2Fucy1zZXJpZiIgZm9udC1zaXplPSIxNCIgbGVuZ3RoQWRqdXN0PSJzcGFjaW5nIiB0ZXh0TGVuZ3RoPSIyNjEiIHg9IjI3IiB5PSIxMzEuMTU2MyI+ZW51bSBUaW1lckN0cmxGbGFnICAvLyAmIzIzNDUwOyYjMjYxMDI7JiMyMjEyMDsmIzI1NTExOyYjMjEwNDY7JiMyNjYzMTsmIzI0NTM1OzwvdGV4dD48bGluZSBzdHlsZT0ic3Ryb2tlOiMxODE4MTg7c3Ryb2tlLXdpZHRoOjAuNTsiIHgxPSI4IiB4Mj0iMTAwOSIgeTE9IjEzNi45MDYzIiB5Mj0iMTM2LjkwNjMiLz48ZWxsaXBzZSBjeD0iMTgiIGN5PSIxNDkuODk4NCIgZmlsbD0iIzg0QkU4NCIgcng9IjMiIHJ5PSIzIiBzdHlsZT0ic3Ryb2tlOiMwMzgwNDg7c3Ryb2tlLXdpZHRoOjEuMDsiLz48dGV4dCBmaWxsPSIjMDAwMDAwIiBmb250LWZhbWlseT0ic2Fucy1zZXJpZiIgZm9udC1zaXplPSIxNCIgbGVuZ3RoQWRqdXN0PSJzcGFjaW5nIiB0ZXh0TGVuZ3RoPSIyMDUiIHg9IjI3IiB5PSIxNTQuMTQwNiI+Q1NjcmVlbk1hbmFnZXIoKSAgLy8gJiMyNjUwMDsmIzM2ODk2OyYjMjA5ODk7JiMyNTk2ODs8L3RleHQ+PGVsbGlwc2UgY3g9IjE4IiBjeT0iMTY0Ljg4MjgiIGZpbGw9IiM4NEJFODQiIHJ4PSIzIiByeT0iMyIgc3R5bGU9InN0cm9rZTojMDM4MDQ4O3N0cm9rZS13aWR0aDoxLjA7Ii8+PHRleHQgZmlsbD0iIzAwMDAwMCIgZm9udC1mYW1pbHk9InNhbnMtc2VyaWYiIGZvbnQtc2l6ZT0iMTQiIGxlbmd0aEFkanVzdD0ic3BhY2luZyIgdGV4dExlbmd0aD0iMjEyIiB4PSIyNyIgeT0iMTY5LjEyNSI+fkNTY3JlZW5NYW5hZ2VyKCkgIC8vICYjMjY1MTI7JiMyNjUwMDsmIzIwOTg5OyYjMjU5Njg7PC90ZXh0PjxlbGxpcHNlIGN4PSIxOCIgY3k9IjE3OS44NjcyIiBmaWxsPSIjODRCRTg0IiByeD0iMyIgcnk9IjMiIHN0eWxlPSJzdHJva2U6IzAzODA0ODtzdHJva2Utd2lkdGg6MS4wOyIvPjx0ZXh0IGZpbGw9IiMwMDAwMDAiIGZvbnQtZmFtaWx5PSJzYW5zLXNlcmlmIiBmb250LXNpemU9IjE0IiBsZW5ndGhBZGp1c3Q9InNwYWNpbmciIHRleHRMZW5ndGg9IjExNCIgeD0iMjciIHk9IjE4NC4xMDk0Ij5zdGFydCgpICAvLyAmIzI0MzIwOyYjMjI5ODc7PC90ZXh0PjxlbGxpcHNlIGN4PSIxOCIgY3k9IjE5NC44NTE2IiBmaWxsPSIjODRCRTg0IiByeD0iMyIgcnk9IjMiIHN0eWxlPSJzdHJva2U6IzAzODA0ODtzdHJva2Utd2lkdGg6MS4wOyIvPjx0ZXh0IGZpbGw9IiMwMDAwMDAiIGZvbnQtZmFtaWx5PSJzYW5zLXNlcmlmIiBmb250LXNpemU9IjE0IiBsZW5ndGhBZGp1c3Q9InNwYWNpbmciIHRleHRMZW5ndGg9IjMzMiIgeD0iMjciIHk9IjE5OS4wOTM4Ij5nZXRDYXBzKEpzb246OlZhbHVlJmFtcDsgcmVzcG9uc2UpICAvLyAmIzMzNzE5OyYjMjE0NjI7JiMyMzYzMTsmIzI0MTQ5OyYjMzMwMjE7JiMyMTE0Nzs8L3RleHQ+PGVsbGlwc2UgY3g9IjE4IiBjeT0iMjA5LjgzNTkiIGZpbGw9IiM4NEJFODQiIHJ4PSIzIiByeT0iMyIgc3R5bGU9InN0cm9rZTojMDM4MDQ4O3N0cm9rZS13aWR0aDoxLjA7Ii8+PHRleHQgZmlsbD0iIzAwMDAwMCIgZm9udC1mYW1pbHk9InNhbnMtc2VyaWYiIGZvbnQtc2l6ZT0iMTQiIGxlbmd0aEFkanVzdD0ic3BhY2luZyIgdGV4dExlbmd0aD0iNjcxIiB4PSIyNyIgeT0iMjE0LjA3ODEiPmdldFNjcmVlbkNvbnRyb2xQYXJhbXMoY29uc3Qgc3RkOjpzdHJpbmcgJmFtcDtjb21wb3NpdGVJRCwgSnNvbjo6VmFsdWUgJmFtcDtwYXJtcykgIC8vICYjMzM3MTk7JiMyMTQ2MjsmIzIzNjMxOyYjMjQxNDk7JiMyNTUxMTsmIzIxMDQ2OyYjMjE0NDI7JiMyNTk2ODs8L3RleHQ+PGVsbGlwc2UgY3g9IjE4IiBjeT0iMjI0LjgyMDMiIGZpbGw9IiM4NEJFODQiIHJ4PSIzIiByeT0iMyIgc3R5bGU9InN0cm9rZTojMDM4MDQ4O3N0cm9rZS13aWR0aDoxLjA7Ii8+PHRleHQgZmlsbD0iIzAwMDAwMCIgZm9udC1mYW1pbHk9InNhbnMtc2VyaWYiIGZvbnQtc2l6ZT0iMTQiIGxlbmd0aEFkanVzdD0ic3BhY2luZyIgdGV4dExlbmd0aD0iNzEzIiB4PSIyNyIgeT0iMjI5LjA2MjUiPnNldFNjcmVlbkNvbnRyb2xQYXJhbXMoY29uc3Qgc3RkOjpzdHJpbmcgJmFtcDtjb21wb3NpdGVJRCwgY29uc3QgSnNvbjo6VmFsdWUgJmFtcDtwYXJtcykgIC8vICYjMzU3NzQ7JiMzMjYyMjsmIzIzNjMxOyYjMjQxNDk7JiMyNTUxMTsmIzIxMDQ2OyYjMjE0NDI7JiMyNTk2ODs8L3RleHQ+PGVsbGlwc2UgY3g9IjE4IiBjeT0iMjM5LjgwNDciIGZpbGw9IiM4NEJFODQiIHJ4PSIzIiByeT0iMyIgc3R5bGU9InN0cm9rZTojMDM4MDQ4O3N0cm9rZS13aWR0aDoxLjA7Ii8+PHRleHQgZmlsbD0iIzAwMDAwMCIgZm9udC1mYW1pbHk9InNhbnMtc2VyaWYiIGZvbnQtc2l6ZT0iMTQiIGxlbmd0aEFkanVzdD0ic3BhY2luZyIgdGV4dExlbmd0aD0iNDkzIiB4PSIyNyIgeT0iMjQ0LjA0NjkiPmdldEF0dHJpYnV0ZUNhcHMoc3RkOjpzdHJpbmcgY29tcG9zaXRlSUQsIGludCBvdXRwdXQpICAvLyAmIzMzNzE5OyYjMjE0NjI7JiMyMzY0NjsmIzI0NjE1OyYjMzMwMjE7JiMyMTE0Nzs8L3RleHQ+PGVsbGlwc2UgY3g9IjE4IiBjeT0iMjU0Ljc4OTEiIGZpbGw9IiM4NEJFODQiIHJ4PSIzIiByeT0iMyIgc3R5bGU9InN0cm9rZTojMDM4MDQ4O3N0cm9rZS13aWR0aDoxLjA7Ii8+PHRleHQgZmlsbD0iIzAwMDAwMCIgZm9udC1mYW1pbHk9InNhbnMtc2VyaWYiIGZvbnQtc2l6ZT0iMTQiIGxlbmd0aEFkanVzdD0ic3BhY2luZyIgdGV4dExlbmd0aD0iMzgxIiB4PSIyNyIgeT0iMjU5LjAzMTMiPmN0cmxBdXRvQnJpZ2h0VGltZXIoYm9vbCBiRmxhZykgIC8vICYjMjU1MTE7JiMyMTA0NjsmIzMzMjU4OyYjMjExNjA7JiMyMDE0MjsmIzI0MjMwOyYjMjM0NTA7JiMyNjEwMjsmIzIyMTIwOzwvdGV4dD48ZWxsaXBzZSBjeD0iMTgiIGN5PSIyNjkuNzczNCIgZmlsbD0iIzg0QkU4NCIgcng9IjMiIHJ5PSIzIiBzdHlsZT0ic3Ryb2tlOiMwMzgwNDg7c3Ryb2tlLXdpZHRoOjEuMDsiLz48dGV4dCBmaWxsPSIjMDAwMDAwIiBmb250LWZhbWlseT0ic2Fucy1zZXJpZiIgZm9udC1zaXplPSIxNCIgbGVuZ3RoQWRqdXN0PSJzcGFjaW5nIiB0ZXh0TGVuZ3RoPSI1NzEiIHg9IjI3IiB5PSIyNzQuMDE1NiI+cG93ZXJDdHJsKGNvbnN0IHN0ZDo6c3RyaW5nICZhbXA7Y29tcG9zaXRlSUQsIGludCBvdXRwdXQsIGJvb2wgb25fZmFsc2UpICAvLyAmIzI1NTExOyYjMjEwNDY7JiMzMDAwNTsmIzI4MzA0OzwvdGV4dD48ZWxsaXBzZSBjeD0iMTgiIGN5PSIyODQuNzU3OCIgZmlsbD0iIzg0QkU4NCIgcng9IjMiIHJ5PSIzIiBzdHlsZT0ic3Ryb2tlOiMwMzgwNDg7c3Ryb2tlLXdpZHRoOjEuMDsiLz48dGV4dCBmaWxsPSIjMDAwMDAwIiBmb250LWZhbWlseT0ic2Fucy1zZXJpZiIgZm9udC1zaXplPSIxNCIgbGVuZ3RoQWRqdXN0PSJzcGFjaW5nIiB0ZXh0TGVuZ3RoPSI5NzciIHg9IjI3IiB5PSIyODkiPnNldEF0dHJpYnV0ZShjb25zdCBzdGQ6OnN0cmluZyAmYW1wO2NvbXBvc2l0ZUlELCBpbnQgb3V0cHV0LCBzdGQ6OnN0cmluZyB0eXBlLCBzdGQ6OnN0cmluZyBhdHRyTmFtZSwgaW50IGN1cnJlbnRWYWx1ZSwgaW50IE9wdGlvbikgIC8vICYjMzU3NzQ7JiMzMjYyMjsmIzIzNjQ2OyYjMjQ2MTU7PC90ZXh0PjxlbGxpcHNlIGN4PSIxOCIgY3k9IjI5OS43NDIyIiBmaWxsPSIjODRCRTg0IiByeD0iMyIgcnk9IjMiIHN0eWxlPSJzdHJva2U6IzAzODA0ODtzdHJva2Utd2lkdGg6MS4wOyIvPjx0ZXh0IGZpbGw9IiMwMDAwMDAiIGZvbnQtZmFtaWx5PSJzYW5zLXNlcmlmIiBmb250LXNpemU9IjE0IiBsZW5ndGhBZGp1c3Q9InNwYWNpbmciIHRleHRMZW5ndGg9Ijc4OCIgeD0iMjciIHk9IjMwMy45ODQ0Ij5nZXRBdHRyaWJ1dGUoY29uc3Qgc3RkOjpzdHJpbmcgJmFtcDtjb21wb3NpdGVJRCwgaW50IG91dHB1dCwgc3RkOjpzdHJpbmcgIHR5cGUsIEpzb246OlZhbHVlJmFtcDsgYXR0cmlidXRlKSAgLy8gJiMzMzcxOTsmIzIxNDYyOyYjMjM2NDY7JiMyNDYxNTs8L3RleHQ+PGVsbGlwc2UgY3g9IjE4IiBjeT0iMzE0LjcyNjYiIGZpbGw9IiM4NEJFODQiIHJ4PSIzIiByeT0iMyIgc3R5bGU9InN0cm9rZTojMDM4MDQ4O3N0cm9rZS13aWR0aDoxLjA7Ii8+PHRleHQgZmlsbD0iIzAwMDAwMCIgZm9udC1mYW1pbHk9InNhbnMtc2VyaWYiIGZvbnQtc2l6ZT0iMTQiIGxlbmd0aEFkanVzdD0ic3BhY2luZyIgdGV4dExlbmd0aD0iNDcyIiB4PSIyNyIgeT0iMzE4Ljk2ODgiPmF1dG9BZGp1c3QoY29uc3Qgc3RkOjpzdHJpbmcmYW1wOyBjb21wb3NpdGVJRCwgaW50IG91dHB1dCkgIC8vICYjMzMyNTg7JiMyMTE2MDsmIzM1ODQzOyYjMjU5NzI7PC90ZXh0PjxlbGxpcHNlIGN4PSIxOCIgY3k9IjMyOS43MTA5IiBmaWxsPSIjODRCRTg0IiByeD0iMyIgcnk9IjMiIHN0eWxlPSJzdHJva2U6IzAzODA0ODtzdHJva2Utd2lkdGg6MS4wOyIvPjx0ZXh0IGZpbGw9IiMwMDAwMDAiIGZvbnQtZmFtaWx5PSJzYW5zLXNlcmlmIiBmb250LXNpemU9IjE0IiBsZW5ndGhBZGp1c3Q9InNwYWNpbmciIHRleHRMZW5ndGg9IjU1NyIgeD0iMjciIHk9IjMzMy45NTMxIj5zZXRCYWNrTGlnaHQoY29uc3Qgc3RkOjpzdHJpbmcmYW1wOyBjb21wb3NpdGVJRCwgaW50IG91dHB1dCwgaW50IG1vZGUpICAvLyAmIzM1Nzc0OyYjMzI2MjI7JiMzMjk3MjsmIzIwODA5OzwvdGV4dD48ZWxsaXBzZSBjeD0iMTgiIGN5PSIzNDQuNjk1MyIgZmlsbD0iIzg0QkU4NCIgcng9IjMiIHJ5PSIzIiBzdHlsZT0ic3Ryb2tlOiMwMzgwNDg7c3Ryb2tlLXdpZHRoOjEuMDsiLz48dGV4dCBmaWxsPSIjMDAwMDAwIiBmb250LWZhbWlseT0ic2Fucy1zZXJpZiIgZm9udC1zaXplPSIxNCIgbGVuZ3RoQWRqdXN0PSJzcGFjaW5nIiB0ZXh0TGVuZ3RoPSI2MjYiIHg9IjI3IiB5PSIzNDguOTM3NSI+YmxhY2tTY3JlZW5Db250cm9sKGNvbnN0IHN0ZDo6c3RyaW5nICZhbXA7Y29tcG9zaXRlSUQsIGludCBvdXRwdXQsIGJvb2wgYkVuYWJsZSkgIC8vICYjMjU1MTE7JiMyMTA0NjsmIzQwNjU3OyYjMjM2MzE7PC90ZXh0PjxlbGxpcHNlIGN4PSIxOCIgY3k9IjM1OS42Nzk3IiBmaWxsPSIjODRCRTg0IiByeD0iMyIgcnk9IjMiIHN0eWxlPSJzdHJva2U6IzAzODA0ODtzdHJva2Utd2lkdGg6MS4wOyIvPjx0ZXh0IGZpbGw9IiMwMDAwMDAiIGZvbnQtZmFtaWx5PSJzYW5zLXNlcmlmIiBmb250LXNpemU9IjE0IiBsZW5ndGhBZGp1c3Q9InNwYWNpbmciIHRleHRMZW5ndGg9IjY0MyIgeD0iMjciIHk9IjM2My45MjE5Ij5zZXRQb3dlclNjaGVkdWxlKGNvbnN0IHN0ZDo6c3RyaW5nICZhbXA7Y29tcG9zaXRlSUQsIGNvbnN0IEpzb246OlZhbHVlICZhbXA7cGFybXMpICAvLyAmIzM1Nzc0OyYjMzI2MjI7JiMzMDAwNTsmIzI4MzA0OyYjMzU3NDU7JiMyMTAxMDs8L3RleHQ+PGVsbGlwc2UgY3g9IjE4IiBjeT0iMzc0LjY2NDEiIGZpbGw9IiM4NEJFODQiIHJ4PSIzIiByeT0iMyIgc3R5bGU9InN0cm9rZTojMDM4MDQ4O3N0cm9rZS13aWR0aDoxLjA7Ii8+PHRleHQgZmlsbD0iIzAwMDAwMCIgZm9udC1mYW1pbHk9InNhbnMtc2VyaWYiIGZvbnQtc2l6ZT0iMTQiIGxlbmd0aEFkanVzdD0ic3BhY2luZyIgdGV4dExlbmd0aD0iNjAxIiB4PSIyNyIgeT0iMzc4LjkwNjMiPmdldFBvd2VyU2NoZWR1bGUoY29uc3Qgc3RkOjpzdHJpbmcgJmFtcDtjb21wb3NpdGVJRCwgSnNvbjo6VmFsdWUgJmFtcDtwYXJtcykgIC8vICYjMzM3MTk7JiMyMTQ2MjsmIzMwMDA1OyYjMjgzMDQ7JiMzNTc0NTsmIzIxMDEwOzwvdGV4dD48ZWxsaXBzZSBjeD0iMTgiIGN5PSIzODkuNjQ4NCIgZmlsbD0iIzg0QkU4NCIgcng9IjMiIHJ5PSIzIiBzdHlsZT0ic3Ryb2tlOiMwMzgwNDg7c3Ryb2tlLXdpZHRoOjEuMDsiLz48dGV4dCBmaWxsPSIjMDAwMDAwIiBmb250LWZhbWlseT0ic2Fucy1zZXJpZiIgZm9udC1zaXplPSIxNCIgbGVuZ3RoQWRqdXN0PSJzcGFjaW5nIiB0ZXh0TGVuZ3RoPSI4MjMiIHg9IjI3IiB5PSIzOTMuODkwNiI+c3dpdGNoSW5wdXRTb3VyY2UoY29uc3Qgc3RkOjpzdHJpbmcgJmFtcDtjb21wb3NpdGVJRCwgc3RkOjpzdHJpbmcgZGV2aWNlSUQsIHN0ZDo6dmVjdG9yJmx0O2ludCZndDsgdmlkZW9PdXRwdXRzKSAgLy8gJiMyMDk5OTsmIzI1NDQyOyYjMzY3NTU7JiMyMDgzNzsmIzI4MzA0OzwvdGV4dD48ZWxsaXBzZSBjeD0iMTgiIGN5PSI0MDQuNjMyOCIgZmlsbD0iIzg0QkU4NCIgcng9IjMiIHJ5PSIzIiBzdHlsZT0ic3Ryb2tlOiMwMzgwNDg7c3Ryb2tlLXdpZHRoOjEuMDsiLz48dGV4dCBmaWxsPSIjMDAwMDAwIiBmb250LWZhbWlseT0ic2Fucy1zZXJpZiIgZm9udC1zaXplPSIxNCIgbGVuZ3RoQWRqdXN0PSJzcGFjaW5nIiB0ZXh0TGVuZ3RoPSI2NzUiIHg9IjI3IiB5PSI0MDguODc1Ij5zZXRTaW5nbGVEaXNwbGF5KGNvbnN0IHN0ZDo6c3RyaW5nICZhbXA7Y29tcG9zaXRlSUQsIHN0ZDo6dmVjdG9yJmx0O2ludCZndDsgdmlkZW9PdXRwdXRzKSAgLy8gJiMzNTc3NDsmIzMyNjIyOyYjMjEzMzM7JiMyMDAxMDsmIzI2MTc0OyYjMzEwMzQ7PC90ZXh0PjxlbGxpcHNlIGN4PSIxOCIgY3k9IjQxOS42MTcyIiBmaWxsPSIjODRCRTg0IiByeD0iMyIgcnk9IjMiIHN0eWxlPSJzdHJva2U6IzAzODA0ODtzdHJva2Utd2lkdGg6MS4wOyIvPjx0ZXh0IGZpbGw9IiMwMDAwMDAiIGZvbnQtZmFtaWx5PSJzYW5zLXNlcmlmIiBmb250LXNpemU9IjE0IiBsZW5ndGhBZGp1c3Q9InNwYWNpbmciIHRleHRMZW5ndGg9Ijc4OSIgeD0iMjciIHk9IjQyMy44NTk0Ij5tYXBBbmFsb2dPdXQoY29uc3Qgc3RkOjpzdHJpbmcgJmFtcDtjb21wb3NpdGVJRCwgc3RkOjpzdHJpbmcgZGV2aWNlSUQsIHN0ZDo6dmVjdG9yJmx0O2ludCZndDsgbTYwT3V0cHV0cykgIC8vICYjMjYxNDQ7JiMyMzU1NjsmIzI3MTY5OyYjMjUzMTE7JiMzNjc1NTsmIzIwOTg2OzwvdGV4dD48ZWxsaXBzZSBjeD0iMTgiIGN5PSI0MzQuNjAxNiIgZmlsbD0iIzg0QkU4NCIgcng9IjMiIHJ5PSIzIiBzdHlsZT0ic3Ryb2tlOiMwMzgwNDg7c3Ryb2tlLXdpZHRoOjEuMDsiLz48dGV4dCBmaWxsPSIjMDAwMDAwIiBmb250LWZhbWlseT0ic2Fucy1zZXJpZiIgZm9udC1zaXplPSIxNCIgbGVuZ3RoQWRqdXN0PSJzcGFjaW5nIiB0ZXh0TGVuZ3RoPSIzODgiIHg9IjI3IiB5PSI0MzguODQzOCI+Z2V0UHJvdG9jb2woY29uc3Qgc3RkOjpzdHJpbmcgY29tcG9zaXRlSUQpICAvLyAmIzMzNzE5OyYjMjE0NjI7JiMyMTMyNzsmIzM1NzU4OzwvdGV4dD48ZWxsaXBzZSBjeD0iMTgiIGN5PSI0NDkuNTg1OSIgZmlsbD0iIzg0QkU4NCIgcng9IjMiIHJ5PSIzIiBzdHlsZT0ic3Ryb2tlOiMwMzgwNDg7c3Ryb2tlLXdpZHRoOjEuMDsiLz48dGV4dCBmaWxsPSIjMDAwMDAwIiBmb250LWZhbWlseT0ic2Fucy1zZXJpZiIgZm9udC1zaXplPSIxNCIgbGVuZ3RoQWRqdXN0PSJzcGFjaW5nIiB0ZXh0TGVuZ3RoPSI0MjMiIHg9IjI3IiB5PSI0NTMuODI4MSI+Z2V0UHJvdEluZGV4KGNvbnN0IHN0ZDo6c3RyaW5nIGNvbXBvc2l0ZUlEKSAgLy8gJiMzMzcxOTsmIzIxNDYyOyYjMjEzMjc7JiMzNTc1ODsmIzMyMDM0OyYjMjQzNDE7PC90ZXh0PjxlbGxpcHNlIGN4PSIxOCIgY3k9IjQ2NC41NzAzIiBmaWxsPSIjODRCRTg0IiByeD0iMyIgcnk9IjMiIHN0eWxlPSJzdHJva2U6IzAzODA0ODtzdHJva2Utd2lkdGg6MS4wOyIvPjx0ZXh0IGZpbGw9IiMwMDAwMDAiIGZvbnQtZmFtaWx5PSJzYW5zLXNlcmlmIiBmb250LXNpemU9IjE0IiBsZW5ndGhBZGp1c3Q9InNwYWNpbmciIHRleHRMZW5ndGg9IjE5MiIgeD0iMjciIHk9IjQ2OC44MTI1Ij5kdW1wU2NoZWR1bGUoKSAgLy8gJiMzNjcxNjsmIzIwNjQ4OyYjMzU3NDU7JiMyMTAxMDs8L3RleHQ+PGVsbGlwc2UgY3g9IjE4IiBjeT0iNDc5LjU1NDciIGZpbGw9IiM4NEJFODQiIHJ4PSIzIiByeT0iMyIgc3R5bGU9InN0cm9rZTojMDM4MDQ4O3N0cm9rZS13aWR0aDoxLjA7Ii8+PHRleHQgZmlsbD0iIzAwMDAwMCIgZm9udC1mYW1pbHk9InNhbnMtc2VyaWYiIGZvbnQtc2l6ZT0iMTQiIGxlbmd0aEFkanVzdD0ic3BhY2luZyIgdGV4dExlbmd0aD0iMjMzIiB4PSIyNyIgeT0iNDgzLjc5NjkiPnByb2Nlc3NPbGRDb25maWcoKSAgLy8gJiMyMjc4ODsmIzI5NzAyOyYjMjYwODc7JiMzNzE5NzsmIzMyNjIyOzwvdGV4dD48ZWxsaXBzZSBjeD0iMTgiIGN5PSI0OTQuNTM5MSIgZmlsbD0iIzg0QkU4NCIgcng9IjMiIHJ5PSIzIiBzdHlsZT0ic3Ryb2tlOiMwMzgwNDg7c3Ryb2tlLXdpZHRoOjEuMDsiLz48dGV4dCBmaWxsPSIjMDAwMDAwIiBmb250LWZhbWlseT0ic2Fucy1zZXJpZiIgZm9udC1zaXplPSIxNCIgbGVuZ3RoQWRqdXN0PSJzcGFjaW5nIiB0ZXh0TGVuZ3RoPSIyNDciIHg9IjI3IiB5PSI0OTguNzgxMyI+c2V0RGVmYXVsdENvbmZpZygpICAvLyAmIzM1Nzc0OyYjMzI2MjI7JiM0MDY2NDsmIzM1NzQ4OyYjMzcxOTc7JiMzMjYyMjs8L3RleHQ+PGVsbGlwc2UgY3g9IjE4IiBjeT0iNTA5LjUyMzQiIGZpbGw9IiM4NEJFODQiIHJ4PSIzIiByeT0iMyIgc3R5bGU9InN0cm9rZTojMDM4MDQ4O3N0cm9rZS13aWR0aDoxLjA7Ii8+PHRleHQgZmlsbD0iIzAwMDAwMCIgZm9udC1mYW1pbHk9InNhbnMtc2VyaWYiIGZvbnQtc2l6ZT0iMTQiIGxlbmd0aEFkanVzdD0ic3BhY2luZyIgdGV4dExlbmd0aD0iNjgyIiB4PSIyNyIgeT0iNTEzLjc2NTYiPnNldFNjcmVlbkNvbnRyb2woY29uc3Qgc3RkOjpzdHJpbmcmYW1wOyBjb21wb3NpdGVJRCwgaW50IG91dHB1dCwgaW50IHNjcmVlbkN0cmxUeXBlKSAgLy8gJiMzNTc3NDsmIzMyNjIyOyYjMjM2MzE7JiMyNDE0OTsmIzI1NTExOyYjMjEwNDY7PC90ZXh0PjxyZWN0IGZpbGw9IiNGMjRENUMiIGhlaWdodD0iNiIgc3R5bGU9InN0cm9rZTojQzgyOTMwO3N0cm9rZS13aWR0aDoxLjA7IiB3aWR0aD0iNiIgeD0iMTUiIHk9IjUyMS41MDc4Ii8+PHRleHQgZmlsbD0iIzAwMDAwMCIgZm9udC1mYW1pbHk9InNhbnMtc2VyaWYiIGZvbnQtc2l6ZT0iMTQiIGxlbmd0aEFkanVzdD0ic3BhY2luZyIgdGV4dExlbmd0aD0iMTcxIiB4PSIyNyIgeT0iNTI4Ljc1Ij5vblRpbWVyKCkgIC8vICYjMjM0NTA7JiMyNjEwMjsmIzIyMTIwOyYjMjAxMDc7JiMyMDIxNDs8L3RleHQ+PHJlY3QgZmlsbD0iI0YyNEQ1QyIgaGVpZ2h0PSI2IiBzdHlsZT0ic3Ryb2tlOiNDODI5MzA7c3Ryb2tlLXdpZHRoOjEuMDsiIHdpZHRoPSI2IiB4PSIxNSIgeT0iNTM2LjQ5MjIiLz48dGV4dCBmaWxsPSIjMDAwMDAwIiBmb250LWZhbWlseT0ic2Fucy1zZXJpZiIgZm9udC1zaXplPSIxNCIgbGVuZ3RoQWRqdXN0PSJzcGFjaW5nIiB0ZXh0TGVuZ3RoPSI0MjMiIHg9IjI3IiB5PSI1NDMuNzM0NCI+Z2V0VGltZXJDdHJsRmxhZyhjb25zdCBpbnQgYXR0clZhbHVlKSAgLy8gJiMzMzcxOTsmIzIxNDYyOyYjMjM0NTA7JiMyNjEwMjsmIzIyMTIwOyYjMjU1MTE7JiMyMTA0NjsmIzI2NjMxOyYjMjQ1MzU7PC90ZXh0PjxyZWN0IGZpbGw9IiNGMjRENUMiIGhlaWdodD0iNiIgc3R5bGU9InN0cm9rZTojQzgyOTMwO3N0cm9rZS13aWR0aDoxLjA7IiB3aWR0aD0iNiIgeD0iMTUiIHk9IjU1MS40NzY2Ii8+PHRleHQgZmlsbD0iIzAwMDAwMCIgZm9udC1mYW1pbHk9InNhbnMtc2VyaWYiIGZvbnQtc2l6ZT0iMTQiIGxlbmd0aEFkanVzdD0ic3BhY2luZyIgdGV4dExlbmd0aD0iMzQ2IiB4PSIyNyIgeT0iNTU4LjcxODgiPm9uQ2FwdHVyZUJyaWdodG5lc3NUaW1lcigpICAvLyAmIzIwMTQyOyYjMjQyMzA7JiMyNTQyOTsmIzMzNzE5OyYjMjM0NTA7JiMyNjEwMjsmIzIyMTIwOyYjMjAxMDc7JiMyMDIxNDs8L3RleHQ+PHJlY3QgZmlsbD0iI0YyNEQ1QyIgaGVpZ2h0PSI2IiBzdHlsZT0ic3Ryb2tlOiNDODI5MzA7c3Ryb2tlLXdpZHRoOjEuMDsiIHdpZHRoPSI2IiB4PSIxNSIgeT0iNTY2LjQ2MDkiLz48dGV4dCBmaWxsPSIjMDAwMDAwIiBmb250LWZhbWlseT0ic2Fucy1zZXJpZiIgZm9udC1zaXplPSIxNCIgbGVuZ3RoQWRqdXN0PSJzcGFjaW5nIiB0ZXh0TGVuZ3RoPSIzODgiIHg9IjI3IiB5PSI1NzMuNzAzMSI+b25DaGVja05lZWRBZGp1c3RUaW1lcigpICAvLyAmIzI2ODE2OyYjMjY1OTc7JiMyNjE1OTsmIzIxNTQyOyYjMzg2NTY7JiMzNTIwMTsmIzM1ODQzOyYjMjU5NzI7JiMyMzQ1MDsmIzI2MTAyOyYjMjIxMjA7JiMyMDEwNzsmIzIwMjE0OzwvdGV4dD48cmVjdCBmaWxsPSIjRjI0RDVDIiBoZWlnaHQ9IjYiIHN0eWxlPSJzdHJva2U6I0M4MjkzMDtzdHJva2Utd2lkdGg6MS4wOyIgd2lkdGg9IjYiIHg9IjE1IiB5PSI1ODEuNDQ1MyIvPjx0ZXh0IGZpbGw9IiMwMDAwMDAiIGZvbnQtZmFtaWx5PSJzYW5zLXNlcmlmIiBmb250LXNpemU9IjE0IiBsZW5ndGhBZGp1c3Q9InNwYWNpbmciIHRleHRMZW5ndGg9IjM3MyIgeD0iMjciIHk9IjU4OC42ODc1Ij5jYWxjdWxhdGVCcmlnaHRuZXNzKGNvbnN0IGludCBhdHRyVmFsdWUpICAvLyAmIzM1NzQ1OyYjMzE2Mzk7JiMyMDE0MjsmIzI0MjMwOzwvdGV4dD48cmVjdCBmaWxsPSIjRjI0RDVDIiBoZWlnaHQ9IjYiIHN0eWxlPSJzdHJva2U6I0M4MjkzMDtzdHJva2Utd2lkdGg6MS4wOyIgd2lkdGg9IjYiIHg9IjE1IiB5PSI1OTYuNDI5NyIvPjx0ZXh0IGZpbGw9IiMwMDAwMDAiIGZvbnQtZmFtaWx5PSJzYW5zLXNlcmlmIiBmb250LXNpemU9IjE0IiBsZW5ndGhBZGp1c3Q9InNwYWNpbmciIHRleHRMZW5ndGg9IjM2NyIgeD0iMjciIHk9IjYwMy42NzE5Ij5hdXRvQWRqdXN0VGFzayh1bnNpZ25lZCBsb25nIHBhcmFtKSAgLy8gJiMzMzI1ODsmIzIxMTYwOyYjMzU4NDM7JiMyNTk3MjsmIzIwMjE5OyYjMjExNTM7PC90ZXh0PjxyZWN0IGZpbGw9IiNGMjRENUMiIGhlaWdodD0iNiIgc3R5bGU9InN0cm9rZTojQzgyOTMwO3N0cm9rZS13aWR0aDoxLjA7IiB3aWR0aD0iNiIgeD0iMTUiIHk9IjYxMS40MTQxIi8+PHRleHQgZmlsbD0iIzAwMDAwMCIgZm9udC1mYW1pbHk9InNhbnMtc2VyaWYiIGZvbnQtc2l6ZT0iMTQiIGxlbmd0aEFkanVzdD0ic3BhY2luZyIgdGV4dExlbmd0aD0iMzYxIiB4PSIyNyIgeT0iNjE4LjY1NjMiPnBvd2VyQ3RybFRhc2sodW5zaWduZWQgbG9uZyBwYXJhbSkgIC8vICYjMzAwMDU7JiMyODMwNDsmIzI1NTExOyYjMjEwNDY7JiMyMDIxOTsmIzIxMTUzOzwvdGV4dD48cmVjdCBmaWxsPSIjRjI0RDVDIiBoZWlnaHQ9IjYiIHN0eWxlPSJzdHJva2U6I0M4MjkzMDtzdHJva2Utd2lkdGg6MS4wOyIgd2lkdGg9IjYiIHg9IjE1IiB5PSI2MjYuMzk4NCIvPjx0ZXh0IGZpbGw9IiMwMDAwMDAiIGZvbnQtZmFtaWx5PSJzYW5zLXNlcmlmIiBmb250LXNpemU9IjE0IiBsZW5ndGhBZGp1c3Q9InNwYWNpbmciIHRleHRMZW5ndGg9IjM4MSIgeD0iMjciIHk9IjYzMy42NDA2Ij5zZXRBdHRyaWJ1dGVUYXNrKHVuc2lnbmVkIGxvbmcgcGFyYW0pICAvLyAmIzM1Nzc0OyYjMzI2MjI7JiMyMzY0NjsmIzI0NjE1OyYjMjAyMTk7JiMyMTE1Mzs8L3RleHQ+PHJlY3QgZmlsbD0iI0YyNEQ1QyIgaGVpZ2h0PSI2IiBzdHlsZT0ic3Ryb2tlOiNDODI5MzA7c3Ryb2tlLXdpZHRoOjEuMDsiIHdpZHRoPSI2IiB4PSIxNSIgeT0iNjQxLjM4MjgiLz48dGV4dCBmaWxsPSIjMDAwMDAwIiBmb250LWZhbWlseT0ic2Fucy1zZXJpZiIgZm9udC1zaXplPSIxNCIgbGVuZ3RoQWRqdXN0PSJzcGFjaW5nIiB0ZXh0TGVuZ3RoPSIzODEiIHg9IjI3IiB5PSI2NDguNjI1Ij5zZXRCYWNrTGlnaHRUYXNrKHVuc2lnbmVkIGxvbmcgcGFyYW0pICAvLyAmIzM1Nzc0OyYjMzI2MjI7JiMzMjk3MjsmIzIwODA5OyYjMjAyMTk7JiMyMTE1Mzs8L3RleHQ+PHJlY3QgZmlsbD0iI0YyNEQ1QyIgaGVpZ2h0PSI2IiBzdHlsZT0ic3Ryb2tlOiNDODI5MzA7c3Ryb2tlLXdpZHRoOjEuMDsiIHdpZHRoPSI2IiB4PSIxNSIgeT0iNjU2LjM2NzIiLz48dGV4dCBmaWxsPSIjMDAwMDAwIiBmb250LWZhbWlseT0ic2Fucy1zZXJpZiIgZm9udC1zaXplPSIxNCIgbGVuZ3RoQWRqdXN0PSJzcGFjaW5nIiB0ZXh0TGVuZ3RoPSI2NDAiIHg9IjI3IiB5PSI2NjMuNjA5NCI+Z2V0Y2hhbm5lbChzdGQ6OnN0cmluZyBjb21wb3NpdGVJRCwgaW50IG91dHB1dCwgc3RkOjp2ZWN0b3ImbHQ7aW50Jmd0OyZhbXA7IG91dHB1dHNMaXN0KSAgLy8gJiMzMzcxOTsmIzIxNDYyOyYjMzY4OTA7JiMzNjk0Nzs8L3RleHQ+PHJlY3QgZmlsbD0iI0YyNEQ1QyIgaGVpZ2h0PSI2IiBzdHlsZT0ic3Ryb2tlOiNDODI5MzA7c3Ryb2tlLXdpZHRoOjEuMDsiIHdpZHRoPSI2IiB4PSIxNSIgeT0iNjcxLjM1MTYiLz48dGV4dCBmaWxsPSIjMDAwMDAwIiBmb250LWZhbWlseT0ic2Fucy1zZXJpZiIgZm9udC1zaXplPSIxNCIgbGVuZ3RoQWRqdXN0PSJzcGFjaW5nIiB0ZXh0TGVuZ3RoPSI0MjMiIHg9IjI3IiB5PSI2NzguNTkzOCI+Z2V0Y2hhbm5lbChzdGQ6OnN0cmluZyBjb21wb3NpdGVJRCwgaW50IG91dHB1dCkgIC8vICYjMzM3MTk7JiMyMTQ2MjsmIzM2ODkwOyYjMzY5NDc7PC90ZXh0PjxyZWN0IGZpbGw9IiNGMjRENUMiIGhlaWdodD0iNiIgc3R5bGU9InN0cm9rZTojQzgyOTMwO3N0cm9rZS13aWR0aDoxLjA7IiB3aWR0aD0iNiIgeD0iMTUiIHk9IjY4Ni4zMzU5Ii8+PHRleHQgZmlsbD0iIzAwMDAwMCIgZm9udC1mYW1pbHk9InNhbnMtc2VyaWYiIGZvbnQtc2l6ZT0iMTQiIGxlbmd0aEFkanVzdD0ic3BhY2luZyIgdGV4dExlbmd0aD0iNTU4IiB4PSIyNyIgeT0iNjkzLjU3ODEiPmlzQ29tcG9zaXRlSURJbnZhbGlkKGNvbnN0IHN0ZDo6c3RyaW5nIGNvbXBvc2l0ZUlEKSAgLy8gJiMyNjgxNjsmIzI2NTk3O0NvbXBvc2l0ZUlEJiMyNjE1OTsmIzIxNTQyOyYjMjYzNzc7JiMyNTkyODs8L3RleHQ+PHJlY3QgZmlsbD0iI0YyNEQ1QyIgaGVpZ2h0PSI2IiBzdHlsZT0ic3Ryb2tlOiNDODI5MzA7c3Ryb2tlLXdpZHRoOjEuMDsiIHdpZHRoPSI2IiB4PSIxNSIgeT0iNzAxLjMyMDMiLz48dGV4dCBmaWxsPSIjMDAwMDAwIiBmb250LWZhbWlseT0ic2Fucy1zZXJpZiIgZm9udC1zaXplPSIxNCIgbGVuZ3RoQWRqdXN0PSJzcGFjaW5nIiB0ZXh0TGVuZ3RoPSI1NzciIHg9IjI3IiB5PSI3MDguNTYyNSI+b25TY3JlZW5DdHJsVGFibGVDb25maWcoY29uc3QgSnNvbjo6VmFsdWUgJmFtcDtTY3JlZW5DdHJsVGFibGUpICAvLyAmIzIzNjMxOyYjMjQxNDk7JiMyNTUxMTsmIzIxMDQ2OyYjMzQ5MjA7JiMzNzE5NzsmIzMyNjIyOyYjMjAxMDc7JiMyMDIxNDs8L3RleHQ+PHJlY3QgZmlsbD0iI0YyNEQ1QyIgaGVpZ2h0PSI2IiBzdHlsZT0ic3Ryb2tlOiNDODI5MzA7c3Ryb2tlLXdpZHRoOjEuMDsiIHdpZHRoPSI2IiB4PSIxNSIgeT0iNzE2LjMwNDciLz48dGV4dCBmaWxsPSIjMDAwMDAwIiBmb250LWZhbWlseT0ic2Fucy1zZXJpZiIgZm9udC1zaXplPSIxNCIgbGVuZ3RoQWRqdXN0PSJzcGFjaW5nIiB0ZXh0TGVuZ3RoPSI1NTEiIHg9IjI3IiB5PSI3MjMuNTQ2OSI+b25Qb3dlck9wdGlvbkNvbmZpZyhjb25zdCBKc29uOjpWYWx1ZSAmYW1wO3NjcmVlblBvd2VyT3B0aW9uKSAgLy8gJiMzMDAwNTsmIzI4MzA0OyYjMzY4NzM7JiMzOTAzMzsmIzM3MTk3OyYjMzI2MjI7JiMyMDEwNzsmIzIwMjE0OzwvdGV4dD48cmVjdCBmaWxsPSIjRjI0RDVDIiBoZWlnaHQ9IjYiIHN0eWxlPSJzdHJva2U6I0M4MjkzMDtzdHJva2Utd2lkdGg6MS4wOyIgd2lkdGg9IjYiIHg9IjE1IiB5PSI3MzEuMjg5MSIvPjx0ZXh0IGZpbGw9IiMwMDAwMDAiIGZvbnQtZmFtaWx5PSJzYW5zLXNlcmlmIiBmb250LXNpemU9IjE0IiBsZW5ndGhBZGp1c3Q9InNwYWNpbmciIHRleHRMZW5ndGg9IjYyMCIgeD0iMjciIHk9IjczOC41MzEzIj5nZXRQb3dlck9wdGlvbihzdGQ6OnN0cmluZyBjb21wb3NpdGVJRCwgaW50JmFtcDsgY291bnQsICBpbnQmYW1wOyBzY3JlZW5JbnRlciApICAvLyAmIzMzNzE5OyYjMjE0NjI7JiMzMDAwNTsmIzI4MzA0OyYjMzY4NzM7JiMzOTAzMzs8L3RleHQ+PC9nPjwhLS1jbGFzcyBTQ1JFRU5fVEFTSy0tPjxnIGlkPSJlbGVtX1NDUkVFTl9UQVNLIj48cmVjdCBjb2RlTGluZT0iNTAiIGZpbGw9IiNGMUYxRjEiIGhlaWdodD0iMTgyLjg1OTQiIGlkPSJTQ1JFRU5fVEFTSyIgcng9IjIuNSIgcnk9IjIuNSIgc3R5bGU9InN0cm9rZTojMTgxODE4O3N0cm9rZS13aWR0aDowLjU7IiB3aWR0aD0iMjcyIiB4PSIxMDQ1LjUiIHk9IjI4NCIvPjxlbGxpcHNlIGN4PSIxMTM4Ljc1IiBjeT0iMzAwIiBmaWxsPSIjQUREMUIyIiByeD0iMTEiIHJ5PSIxMSIgc3R5bGU9InN0cm9rZTojMTgxODE4O3N0cm9rZS13aWR0aDoxLjA7Ii8+PHBhdGggZD0iTTExMzYuMzc1LDMwNC4yNSBMMTEzNi4zNzUsMzA2IEwxMTQxLjMxMjUsMzA2IEwxMTQxLjMxMjUsMzA0LjI1IEwxMTM2LjM3NSwzMDQuMjUgWiBNMTEzNy4wNjI1LDMwNC45Mzc1IFExMTM3LjA2MjUsMzA0LjkzNzUgMTEzNy4wNjI1LDI5NS43NSBMMTEzNS4zMTI1LDI5NS43NSBRMTEzNS4zMTI1LDI5NS43NSAxMTM1LjMxMjUsMzA0LjkzNzUgTDExMzcuMDYyNSwzMDQuOTM3NSBaIE0xMTQwLjYyNSwzMDQuOTM3NSBMMTE0Mi4zNzUsMzA0LjkzNzUgUTExNDIuMzc1LDMwNC45Mzc1IDExNDIuMzc1LDMwMi4xMjUgTDExNDAuNjI1LDMwMi4xMjUgUTExNDAuNjI1LDMwMi4xMjUgMTE0MC42MjUsMzA0LjkzNzUgWiBNMTE0MC42MjUsMjk1Ljc1IFExMTQwLjYyNSwyOTUuNzUgMTE0MC42MjUsMjk4LjU2MjUgTDExNDIuMzc1LDI5OC41NjI1IFExMTQyLjM3NSwyOTguNTYyNSAxMTQyLjM3NSwyOTUuNzUgTDExNDAuNjI1LDI5NS43NSBaIE0xMTM2LjM3NSwyOTYuNDM3NSBMMTE0MS4zMTI1LDI5Ni40Mzc1IEwxMTQxLjMxMjUsMjk0LjY4NzUgTDExMzYuMzc1LDI5NC42ODc1IEwxMTM2LjM3NSwyOTYuNDM3NSBaICIgZmlsbD0iIzAwMDAwMCIvPjx0ZXh0IGZpbGw9IiMwMDAwMDAiIGZvbnQtZmFtaWx5PSJzYW5zLXNlcmlmIiBmb250LXNpemU9IjE0IiBsZW5ndGhBZGp1c3Q9InNwYWNpbmciIHRleHRMZW5ndGg9Ijc3IiB4PSIxMTU5LjI1IiB5PSIzMDUuNzQyMiI+U0NSRUVOX1RBU0s8L3RleHQ+PGxpbmUgc3R5bGU9InN0cm9rZTojMTgxODE4O3N0cm9rZS13aWR0aDowLjU7IiB4MT0iMTA0Ni41IiB4Mj0iMTMxNi41IiB5MT0iMzE2IiB5Mj0iMzE2Ii8+PHJlY3QgZmlsbD0ibm9uZSIgaGVpZ2h0PSI2IiBzdHlsZT0ic3Ryb2tlOiNDODI5MzA7c3Ryb2tlLXdpZHRoOjEuMDsiIHdpZHRoPSI2IiB4PSIxMDUzLjUiIHk9IjMyNS45OTIyIi8+PHRleHQgZmlsbD0iIzAwMDAwMCIgZm9udC1mYW1pbHk9InNhbnMtc2VyaWYiIGZvbnQtc2l6ZT0iMTQiIGxlbmd0aEFkanVzdD0ic3BhY2luZyIgdGV4dExlbmd0aD0iMjM4IiB4PSIxMDY1LjUiIHk9IjMzMy4yMzQ0Ij5vcGVyYXRlOiBPUEVSQVRFX1RZUEUgIC8vICYjMjU4MDU7JiMyMDMxNjsmIzMxODY3OyYjMjI0MTE7PC90ZXh0PjxyZWN0IGZpbGw9Im5vbmUiIGhlaWdodD0iNiIgc3R5bGU9InN0cm9rZTojQzgyOTMwO3N0cm9rZS13aWR0aDoxLjA7IiB3aWR0aD0iNiIgeD0iMTA1My41IiB5PSIzNDAuOTc2NiIvPjx0ZXh0IGZpbGw9IiMwMDAwMDAiIGZvbnQtZmFtaWx5PSJzYW5zLXNlcmlmIiBmb250LXNpemU9IjE0IiBsZW5ndGhBZGp1c3Q9InNwYWNpbmciIHRleHRMZW5ndGg9IjI0NiIgeD0iMTA2NS41IiB5PSIzNDguMjE4OCI+Y29tcG9zaXRlSUQ6IHN0ZDo6c3RyaW5nICAvLyAmIzMyNDUyOyYjMjE1MTI7SUQ8L3RleHQ+PHJlY3QgZmlsbD0ibm9uZSIgaGVpZ2h0PSI2IiBzdHlsZT0ic3Ryb2tlOiNDODI5MzA7c3Ryb2tlLXdpZHRoOjEuMDsiIHdpZHRoPSI2IiB4PSIxMDUzLjUiIHk9IjM1NS45NjA5Ii8+PHRleHQgZmlsbD0iIzAwMDAwMCIgZm9udC1mYW1pbHk9InNhbnMtc2VyaWYiIGZvbnQtc2l6ZT0iMTQiIGxlbmd0aEFkanVzdD0ic3BhY2luZyIgdGV4dExlbmd0aD0iMTQwIiB4PSIxMDY1LjUiIHk9IjM2My4yMDMxIj5vdXRwdXQ6IGludCAgLy8gJiMzNjc1NTsmIzIwOTg2OzwvdGV4dD48cmVjdCBmaWxsPSJub25lIiBoZWlnaHQ9IjYiIHN0eWxlPSJzdHJva2U6I0M4MjkzMDtzdHJva2Utd2lkdGg6MS4wOyIgd2lkdGg9IjYiIHg9IjEwNTMuNSIgeT0iMzcwLjk0NTMiLz48dGV4dCBmaWxsPSIjMDAwMDAwIiBmb250LWZhbWlseT0ic2Fucy1zZXJpZiIgZm9udC1zaXplPSIxNCIgbGVuZ3RoQWRqdXN0PSJzcGFjaW5nIiB0ZXh0TGVuZ3RoPSIxNDciIHg9IjEwNjUuNSIgeT0iMzc4LjE4NzUiPm9uX2ZhbHNlOiBib29sICAvLyAmIzIwNTUxOzwvdGV4dD48cmVjdCBmaWxsPSJub25lIiBoZWlnaHQ9IjYiIHN0eWxlPSJzdHJva2U6I0M4MjkzMDtzdHJva2Utd2lkdGg6MS4wOyIgd2lkdGg9IjYiIHg9IjEwNTMuNSIgeT0iMzg1LjkyOTciLz48dGV4dCBmaWxsPSIjMDAwMDAwIiBmb250LWZhbWlseT0ic2Fucy1zZXJpZiIgZm9udC1zaXplPSIxNCIgbGVuZ3RoQWRqdXN0PSJzcGFjaW5nIiB0ZXh0TGVuZ3RoPSIxODIiIHg9IjEwNjUuNSIgeT0iMzkzLjE3MTkiPnR5cGU6IHN0ZDo6c3RyaW5nICAvLyAmIzMxODY3OyYjMjI0MTE7PC90ZXh0PjxyZWN0IGZpbGw9Im5vbmUiIGhlaWdodD0iNiIgc3R5bGU9InN0cm9rZTojQzgyOTMwO3N0cm9rZS13aWR0aDoxLjA7IiB3aWR0aD0iNiIgeD0iMTA1My41IiB5PSI0MDAuOTE0MSIvPjx0ZXh0IGZpbGw9IiMwMDAwMDAiIGZvbnQtZmFtaWx5PSJzYW5zLXNlcmlmIiBmb250LXNpemU9IjE0IiBsZW5ndGhBZGp1c3Q9InNwYWNpbmciIHRleHRMZW5ndGg9IjIzOSIgeD0iMTA2NS41IiB5PSI0MDguMTU2MyI+YXR0ck5hbWU6IHN0ZDo6c3RyaW5nICAvLyAmIzIzNjQ2OyYjMjQ2MTU7JiMyMTUxNzsmIzMxMjE2OzwvdGV4dD48cmVjdCBmaWxsPSJub25lIiBoZWlnaHQ9IjYiIHN0eWxlPSJzdHJva2U6I0M4MjkzMDtzdHJva2Utd2lkdGg6MS4wOyIgd2lkdGg9IjYiIHg9IjEwNTMuNSIgeT0iNDE1Ljg5ODQiLz48dGV4dCBmaWxsPSIjMDAwMDAwIiBmb250LWZhbWlseT0ic2Fucy1zZXJpZiIgZm9udC1zaXplPSIxNCIgbGVuZ3RoQWRqdXN0PSJzcGFjaW5nIiB0ZXh0TGVuZ3RoPSIxOTYiIHg9IjEwNjUuNSIgeT0iNDIzLjE0MDYiPmN1cnJlbnRWYWx1ZTogaW50ICAvLyAmIzI0NDAzOyYjMjEwNjk7JiMyMDU0MDs8L3RleHQ+PHJlY3QgZmlsbD0ibm9uZSIgaGVpZ2h0PSI2IiBzdHlsZT0ic3Ryb2tlOiNDODI5MzA7c3Ryb2tlLXdpZHRoOjEuMDsiIHdpZHRoPSI2IiB4PSIxMDUzLjUiIHk9IjQzMC44ODI4Ii8+PHRleHQgZmlsbD0iIzAwMDAwMCIgZm9udC1mYW1pbHk9InNhbnMtc2VyaWYiIGZvbnQtc2l6ZT0iMTQiIGxlbmd0aEFkanVzdD0ic3BhY2luZyIgdGV4dExlbmd0aD0iMTQwIiB4PSIxMDY1LjUiIHk9IjQzOC4xMjUiPk9wdGlvbjogaW50ICAvLyAmIzM2ODczOyYjMzkwMzM7PC90ZXh0PjxyZWN0IGZpbGw9Im5vbmUiIGhlaWdodD0iNiIgc3R5bGU9InN0cm9rZTojQzgyOTMwO3N0cm9rZS13aWR0aDoxLjA7IiB3aWR0aD0iNiIgeD0iMTA1My41IiB5PSI0NDUuODY3MiIvPjx0ZXh0IGZpbGw9IiMwMDAwMDAiIGZvbnQtZmFtaWx5PSJzYW5zLXNlcmlmIiBmb250LXNpemU9IjE0IiBsZW5ndGhBZGp1c3Q9InNwYWNpbmciIHRleHRMZW5ndGg9IjEyNyIgeD0iMTA2NS41IiB5PSI0NTMuMTA5NCI+bW9kZTogaW50ICAvLyAmIzI3MTY5OyYjMjQzMzU7PC90ZXh0PjxsaW5lIHN0eWxlPSJzdHJva2U6IzE4MTgxODtzdHJva2Utd2lkdGg6MC41OyIgeDE9IjEwNDYuNSIgeDI9IjEzMTYuNSIgeTE9IjQ1OC44NTk0IiB5Mj0iNDU4Ljg1OTQiLz48L2c+PCEtLWNsYXNzIENUaW1lci0tPjxnIGlkPSJlbGVtX0NUaW1lciI+PHJlY3QgY29kZUxpbmU9IjYyIiBmaWxsPSIjRjFGMUYxIiBoZWlnaHQ9Ijc3Ljk2ODgiIGlkPSJDVGltZXIiIHJ4PSIyLjUiIHJ5PSIyLjUiIHN0eWxlPSJzdHJva2U6IzE4MTgxODtzdHJva2Utd2lkdGg6MC41OyIgd2lkdGg9IjE0MCIgeD0iNDM4LjUiIHk9IjgwNCIvPjxlbGxpcHNlIGN4PSI0ODIuNzUiIGN5PSI4MjAiIGZpbGw9IiNBREQxQjIiIHJ4PSIxMSIgcnk9IjExIiBzdHlsZT0ic3Ryb2tlOiMxODE4MTg7c3Ryb2tlLXdpZHRoOjEuMDsiLz48cGF0aCBkPSJNNDgwLjM3NSw4MjQuMjUgTDQ4MC4zNzUsODI2IEw0ODUuMzEyNSw4MjYgTDQ4NS4zMTI1LDgyNC4yNSBMNDgwLjM3NSw4MjQuMjUgWiBNNDgxLjA2MjUsODI0LjkzNzUgUTQ4MS4wNjI1LDgyNC45Mzc1IDQ4MS4wNjI1LDgxNS43NSBMNDc5LjMxMjUsODE1Ljc1IFE0NzkuMzEyNSw4MTUuNzUgNDc5LjMxMjUsODI0LjkzNzUgTDQ4MS4wNjI1LDgyNC45Mzc1IFogTTQ4NC42MjUsODI0LjkzNzUgTDQ4Ni4zNzUsODI0LjkzNzUgUTQ4Ni4zNzUsODI0LjkzNzUgNDg2LjM3NSw4MjIuMTI1IEw0ODQuNjI1LDgyMi4xMjUgUTQ4NC42MjUsODIyLjEyNSA0ODQuNjI1LDgyNC45Mzc1IFogTTQ4NC42MjUsODE1Ljc1IFE0ODQuNjI1LDgxNS43NSA0ODQuNjI1LDgxOC41NjI1IEw0ODYuMzc1LDgxOC41NjI1IFE0ODYuMzc1LDgxOC41NjI1IDQ4Ni4zNzUsODE1Ljc1IEw0ODQuNjI1LDgxNS43NSBaIE00ODAuMzc1LDgxNi40Mzc1IEw0ODUuMzEyNSw4MTYuNDM3NSBMNDg1LjMxMjUsODE0LjY4NzUgTDQ4MC4zNzUsODE0LjY4NzUgTDQ4MC4zNzUsODE2LjQzNzUgWiAiIGZpbGw9IiMwMDAwMDAiLz48dGV4dCBmaWxsPSIjMDAwMDAwIiBmb250LWZhbWlseT0ic2Fucy1zZXJpZiIgZm9udC1zaXplPSIxNCIgbGVuZ3RoQWRqdXN0PSJzcGFjaW5nIiB0ZXh0TGVuZ3RoPSI0MyIgeD0iNTAzLjI1IiB5PSI4MjUuNzQyMiI+Q1RpbWVyPC90ZXh0PjxsaW5lIHN0eWxlPSJzdHJva2U6IzE4MTgxODtzdHJva2Utd2lkdGg6MC41OyIgeDE9IjQzOS41IiB4Mj0iNTc3LjUiIHkxPSI4MzYiIHkyPSI4MzYiLz48bGluZSBzdHlsZT0ic3Ryb2tlOiMxODE4MTg7c3Ryb2tlLXdpZHRoOjAuNTsiIHgxPSI0MzkuNSIgeDI9IjU3Ny41IiB5MT0iODQ0IiB5Mj0iODQ0Ii8+PGVsbGlwc2UgY3g9IjQ0OS41IiBjeT0iODU2Ljk5MjIiIGZpbGw9IiM4NEJFODQiIHJ4PSIzIiByeT0iMyIgc3R5bGU9InN0cm9rZTojMDM4MDQ4O3N0cm9rZS13aWR0aDoxLjA7Ii8+PHRleHQgZmlsbD0iIzAwMDAwMCIgZm9udC1mYW1pbHk9InNhbnMtc2VyaWYiIGZvbnQtc2l6ZT0iMTQiIGxlbmd0aEFkanVzdD0ic3BhY2luZyIgdGV4dExlbmd0aD0iMTE0IiB4PSI0NTguNSIgeT0iODYxLjIzNDQiPnN0YXJ0KCkgIC8vICYjMjQzMjA7JiMyMjk4Nzs8L3RleHQ+PGVsbGlwc2UgY3g9IjQ0OS41IiBjeT0iODcxLjk3NjYiIGZpbGw9IiM4NEJFODQiIHJ4PSIzIiByeT0iMyIgc3R5bGU9InN0cm9rZTojMDM4MDQ4O3N0cm9rZS13aWR0aDoxLjA7Ii8+PHRleHQgZmlsbD0iIzAwMDAwMCIgZm9udC1mYW1pbHk9InNhbnMtc2VyaWYiIGZvbnQtc2l6ZT0iMTQiIGxlbmd0aEFkanVzdD0ic3BhY2luZyIgdGV4dExlbmd0aD0iMTA3IiB4PSI0NTguNSIgeT0iODc2LjIxODgiPnN0b3AoKSAgLy8gJiMyMDU3MjsmIzI3NDkwOzwvdGV4dD48L2c+PCEtLVNSQz1bcExWVEpYajc1QnhkQVZPQUtKTEhVaktCZ3dmNFoya3ZKRzc1TGdMVWVWN2tPQlFpUHJReGl3SEhiQ2U0WUZjZldybGdHYkQ0QzJNMGVqT2JLZmVzRGdPbHVyZFJSejdQZExkbDNoT25lNW9LQXhEcHZsbEVfcGNaNmkyc2JOWEFqSTE0Tm04NGlqMUk3ZXFleEVfMzJ2XzdGYjJLRXRTS1RzLXZhei1kWE9QUkZYTG90bXFHQjM1UElUMGNtMkJZYzl4YndWNjZFQ1gyNFdVY0ZWUXZaTDRpelhLbTczWWdNRDBzQ1I4WGJzeV8tdmprX2FuVlJ6OXR2VlBJV3d4XzZqeGJ6NzZDWThNRFFNMjFkM3NjaWdrNENNZ25jNHFpN01NTEtITmRKNnBoMTJPZFJZYUhBY05LMTVSRXhrTG5kbnRKclJUcXlxZDRYOWtueVZFMWRETnBMZ0N3YTlEUEU0dU9RaU9YcTdUSmI0VVlxSDVIaTREQ1h5WjZ4QmR2T3liZkFoNkNTT1ZXa3ZRVWRJRGZGU1YyYmk3T0szQVY2STBoMGtYaHFZd3lla2lkcExnTHJldmV6UmN4X1BSLVNZOUdKRm0wTWQ0NkRUSi1LQjVSWWktM3FTbWlDOEJXU2doTUp0LXZqTEJld0F4SHJ1QUZJZjY3OWZJXzA4T3YyTkFHdHI0VG91QTgtMTdYTndQQ2VjQ2FYeU5wTmZ6R3Q1V2hlUFFLeDIxMHhHc1NlME9pTkVGUUR1dkRVZWI3WHdJMTd5RnN3UDlSVlhFd3pvdkd2LXp2dVJ5NjdsLVRtbmdDa2dZenozclRNSEY4Nk9GWElaTG9fVXA4OTEzODY1OW9URWVfaTA4OWpQX3NTWS1icGE3RENVMXhnSi1VVmtyZ1hReC02OFJ4VVpvTlR2Sy0zRk8zZFFYcElTSGlKczc3S2VUSkg0eXFrQTJodVRTNWcxOWlWU0JTLVFjb2U2aUdKX2JFNUpoR3JPOVJGNllWUno2TGJyQVRmSFlLMElUcXNwSjBtd2xuTnl1YTJnVE9SbHhwb2pxdlJudE0xNWFFY0VDODYzWkJuRC1OZVJjRkZ2Qjh0UHJ6VWhoaWRiSlNaSFVVaU9MUTk5V005YlpqY3Y0SFFnYTRZdmxqUWJMNkkyOERWZGpUWURRUjB0Zk01YTJRYXBFeEVJTGE2eF9KOW9USVJmV01MZzVqSm5hUUF3SFBGSGpDcGlGYkxrY2ZrdHRTTUlhb0R1VG5kODJwbTM2ODlDbjNxUWRsakFrNzUtTTc1RWNHOWMzcHN3cHhmcmF4NnBKOFZCUlJoRHRwNklDaTJFUDhpeFJIaDBTb3BCay1hMFZmSkk2WGFTVmJUS1VfZzJJXzFZWVNvVHFscTctdGt0bmlLMUI3V2RwMDhVUjZnMDl5ZEJkNWllVktMbmE2QzBWTC1LYThEVHZxZXpWVHRfQmtZdlZrcGYtcVRESlBwUlVGNWRibHhHLWIwYURyMzQwWWtibllNaE5JZ2N2cF9TSnppRjZkV0pxX3ZZMVJwb0FlQUdQY0VNVHctcVRsYnNfTXd0SXo4VzJ3T19oby14bXhTTVRBendFWlU4V0FhT2J2NFE4eFJndTJtSVVBMUM3SUd2cTMyNDdaQWxqRlJ3Q081SVZzRlRzTXJnREVfZGJkU1VqNkIwRFhUM2lVdGFZWTFNM2VzYkt3MWktaW81c1VQRXhrY2JqVXhRUGNBWW16UnFvQVdreXB1b3U4WWtnQmI2VXhTaUF4bWVOYXp3U1V0dUs2ZV9DRTQxNkR2YjRkbHpRZmxFaTM3aW5LVmtMSUJ0aVRvNDRpYmxtVnBmVDRYQnJIVWlTZzluR2FrSGFfd01EQXRBX1JZNXhvM2tqOTBkYUY1Z3lPd01oVjlSWjVJaE5xRDRJMm9DYWZ0R3hzbHI3NFF3TG9ydk53dlVFSDRUTF8xQVJZem5FOW9QZHFVRWVCeUc5YVlNMTJZcE1rYzM4cmRSV19kYXhDZkItVUpsMTR0SWVzNnhranJ0TXdqbjdxa0oxd0NOZFZ6TW9rQnpGSVFkOFkwRlJCOS1RTmFjek5FQVhsVHp5NkNSdUMtaGVsNWlJWGpwbHRXT3lnNGtwdWxNQXlDejVJaU5MeTZjV1RVR0E0LWozNjVicWhxbG9QYUVCOTZmeEJvU1JNdVYyOFJIeHFSM0ZxZ3VaVWVzNWxPOWpXQ19ZLWtFbC1TSjNvLTN5MF0tLT48L2c+PC9zdmc+;" vertex="1" parent="WIyWlLk6GJQsqaUBKTNV-1">
            <mxGeometry x="-510" y="950" width="1324" height="888" as="geometry" />
          </mxCell>
        </UserObject>
        <mxCell id="J0IwMMobx1PNj9GfN-dM-7" value="DisplayCtrl/Trunk/Src/ScreenControl" style="text;strokeColor=none;fillColor=none;html=1;fontSize=24;fontStyle=1;verticalAlign=middle;align=center;" vertex="1" parent="WIyWlLk6GJQsqaUBKTNV-1">
          <mxGeometry x="-360" y="10" width="70" height="40" as="geometry" />
        </mxCell>
        <mxCell id="J0IwMMobx1PNj9GfN-dM-9" value="" style="rounded=0;whiteSpace=wrap;html=1;" vertex="1" parent="WIyWlLk6GJQsqaUBKTNV-1">
          <mxGeometry x="-570" y="1920" width="2340" height="520" as="geometry" />
        </mxCell>
        <mxCell id="J0IwMMobx1PNj9GfN-dM-10" value="DisplayCtrl Trunk Src ScreenControl ScreenProtocol" style="text;strokeColor=none;fillColor=none;html=1;fontSize=24;fontStyle=1;verticalAlign=middle;align=center;" vertex="1" parent="WIyWlLk6GJQsqaUBKTNV-1">
          <mxGeometry x="-300" y="1930" width="100" height="40" as="geometry" />
        </mxCell>
      </root>
    </mxGraphModel>
  </diagram>
</mxfile>
